<?xml version="1.0" encoding="UTF-8"?> <svg xmlns="http://www.w3.org/2000/svg" width="360" height="721" viewBox="0 0 360 721" fill="none"> <path fill-rule="evenodd" clip-rule="evenodd" d="M3.15539 3.57268C3.12655 2.65061 3.11203 1.72493 3.11203 0.795837H5.8394C5.8394 1.76764 5.85579 2.73564 5.8883 3.69956C27.0048 5.00684 46.7034 13.8329 61.9455 29.1116C77.0082 44.3902 85.9638 64.1361 87.2931 85.3033C88.2558 85.3359 89.2226 85.3524 90.1932 85.3524C91.1632 85.3524 92.1293 85.3359 93.0914 85.3033C95.8145 41.4669 130.767 6.43068 174.498 3.70103C174.531 2.73662 174.547 1.76814 174.547 0.795837H177.274C177.274 1.72494 177.26 2.65076 177.231 3.57307C178.151 3.54429 179.075 3.52979 180.002 3.52979V6.26372C179.031 6.26372 178.064 6.28018 177.101 6.31285C174.356 49.9793 139.259 85.1607 95.697 87.9129C95.6644 88.878 95.648 89.8472 95.648 90.8203C95.648 91.7933 95.6644 92.7625 95.697 93.7276C139.259 96.4798 174.356 131.661 177.101 175.328C178.064 175.36 179.031 175.377 180.002 175.377V178.111C179.075 178.111 178.151 178.096 177.231 178.067C177.258 178.925 177.272 179.786 177.274 180.649H177.274L177.274 180.748L177.274 180.845H177.274C177.272 181.707 177.258 182.568 177.232 183.427C178.151 183.398 179.075 183.383 180.002 183.383V186.117C179.032 186.117 178.067 186.134 177.105 186.166C175.801 207.333 166.996 227.079 151.754 242.358C139.358 254.784 124.015 262.941 107.359 266.258C107.215 267.71 107.142 269.183 107.142 270.674C107.142 272.243 107.223 273.793 107.382 275.32C145.327 283.001 174.51 315.584 177.089 355.181C178.056 355.214 179.027 355.23 180.002 355.23V357.964C179.073 357.964 178.147 357.95 177.224 357.92C177.255 358.843 177.272 359.769 177.274 360.698L177.274 360.796L177.274 360.893C177.272 361.757 177.258 362.618 177.231 363.475C178.151 363.447 179.075 363.432 180.002 363.432V366.166C179.032 366.166 178.065 366.182 177.103 366.215C174.367 410.044 139.266 445.077 95.697 447.816C95.6644 448.781 95.648 449.75 95.648 450.723C95.648 451.761 95.6667 452.794 95.7037 453.823C139.367 456.552 174.277 491.487 177.091 535.23C178.057 535.263 179.028 535.279 180.002 535.279V538.013C179.073 538.013 178.147 537.998 177.225 537.969C177.256 538.892 177.272 539.818 177.274 540.747L177.274 540.845L177.274 540.942C177.272 541.806 177.258 542.667 177.231 543.524C178.152 543.495 179.076 543.481 180.002 543.481V546.215C179.032 546.215 178.066 546.231 177.103 546.263C174.616 586.108 145.381 618.683 107.353 626.335C107.213 627.796 107.142 629.276 107.142 630.771C107.142 632.269 107.216 633.748 107.361 635.206C145.496 642.872 174.617 675.567 177.102 715.279C178.065 715.311 179.031 715.328 180.002 715.328V718.062C179.075 718.062 178.151 718.047 177.231 718.018C177.26 718.941 177.274 719.867 177.274 720.796H174.547C174.547 719.823 174.531 718.854 174.498 717.889C145.999 716.097 121.123 700.489 106.559 677.639H73.8609C59.3008 700.468 34.4088 716.096 5.88839 717.889C5.85582 718.854 5.8394 719.823 5.8394 720.796H3.11203C3.11203 719.867 3.1266 718.941 3.15554 718.018C2.23538 718.047 1.31171 718.062 0.384766 718.062V715.523C1.35109 715.523 2.31363 715.507 3.27214 715.474C5.6736 675.674 34.8279 642.885 73.026 635.206C73.1706 633.748 73.2446 632.269 73.2446 630.771C73.2446 629.273 73.1705 627.793 73.0257 626.333C35.0637 618.691 5.86624 586.212 3.29612 546.46C2.32968 546.427 1.35915 546.41 0.384766 546.41V543.676C1.31379 543.676 2.23953 543.691 3.16175 543.72C3.13085 542.798 3.11428 541.872 3.11224 540.942H3.11203L3.11208 540.845L3.11203 540.747H3.11224C3.11428 539.818 3.1309 538.892 3.16189 537.969C2.23962 537.998 1.31384 538.013 0.384766 538.013V535.279C1.35932 535.279 2.33002 535.263 3.29663 535.23C6.1214 491.649 41.0269 456.566 84.6828 453.824C84.7198 452.795 84.7386 451.761 84.7386 450.723C84.7386 449.75 84.7221 448.781 84.6896 447.816C41.1856 445.081 6.12379 410.149 3.29611 366.411C2.32968 366.378 1.35914 366.361 0.384766 366.361V363.627C1.31379 363.627 2.23953 363.642 3.16175 363.671C3.13085 362.749 3.11428 361.823 3.11224 360.893H3.11203L3.11208 360.795L3.11203 360.698H3.11224C3.11424 359.77 3.13055 358.844 3.16107 357.92C2.23907 357.95 1.31357 357.964 0.384766 357.964V355.23C1.35832 355.23 2.32805 355.214 3.29368 355.181C4.63991 334.088 13.4374 314.416 28.6325 299.185C40.8837 286.904 56.3014 278.673 73.0055 275.311C73.1636 273.787 73.2446 272.24 73.2446 270.674C73.2446 269.183 73.1712 267.71 73.0279 266.258C56.3715 262.941 41.0282 254.784 28.6325 242.358C13.5596 227.249 4.6021 207.501 3.28214 186.166C2.32033 186.134 1.35445 186.117 0.384766 186.117V183.383C1.31154 183.383 2.23503 183.398 3.15502 183.427C3.12841 182.568 3.11411 181.708 3.11224 180.845H3.11203L3.11208 180.747L3.11203 180.649H3.11224C3.11414 179.786 3.12863 178.925 3.15555 178.067C2.23429 178.096 1.31062 178.111 0.384766 178.111V175.377C1.35418 175.377 2.32072 175.361 3.28412 175.328C6.01672 131.655 40.9649 96.4686 84.6895 93.7263C84.7222 92.76 84.7386 91.7912 84.7386 90.8203C84.7386 89.8491 84.7222 88.8802 84.6895 87.9138C41.1206 85.1743 6.01903 50.1419 3.28365 6.31209C2.3204 6.27988 1.35402 6.26372 0.384766 6.26372V3.52979C1.31057 3.52979 2.23419 3.54411 3.15539 3.57268ZM95.8471 456.573C109.844 457.503 122.912 461.861 134.221 468.817V496.418C128.5 480.36 114.378 468.232 96.9717 465.713C96.4363 462.718 96.0585 459.668 95.8471 456.573ZM136.754 512.041V470.437C158.003 484.573 172.505 508.099 174.348 535.092C136.441 532.573 105.351 504.911 97.5415 468.608C118.506 472.23 134.026 490.488 134.026 512.041H136.754ZM93.1047 456.435C95.9324 500.171 130.991 535.101 174.491 537.84C174.527 538.837 174.546 539.839 174.547 540.845C174.546 541.784 174.53 542.72 174.498 543.651C153.214 544.975 133.514 553.954 118.441 569.063C113.878 573.637 109.892 578.611 106.511 583.904H73.7031C59.1225 561.162 34.3099 545.638 5.89522 543.849C5.85928 542.852 5.8406 541.851 5.83946 540.845C5.84059 539.839 5.85927 538.838 5.8952 537.841C49.4605 535.112 84.5582 500.248 87.2942 456.435C88.2566 456.402 89.223 456.386 90.1932 456.386C91.1676 456.386 92.1382 456.402 93.1047 456.435ZM92.9703 453.695C92.9373 452.708 92.9206 451.717 92.9206 450.723C92.9206 449.793 92.9351 448.867 92.9638 447.945C92.0437 447.974 91.1201 447.989 90.1932 447.989C89.2642 447.989 88.3384 447.974 87.4162 447.945C87.4493 448.932 87.4659 449.923 87.4659 450.918C87.4659 451.847 87.4514 452.773 87.4225 453.695C88.3426 453.666 89.2662 453.652 90.1932 453.652C91.1224 453.652 92.0482 453.666 92.9703 453.695ZM134.026 432.943C122.758 439.831 109.756 444.145 95.8339 445.068C96.0374 441.984 96.406 438.946 96.9311 435.961C114.439 433.517 128.471 421.355 134.026 405.417V432.943ZM136.753 431.203V389.795H134.221C134.221 411.446 118.558 429.772 97.4482 433.277C105.102 396.753 136.295 368.876 174.361 366.352C172.575 393.427 158.054 417.034 136.753 431.203ZM174.498 363.603C130.767 366.333 95.8145 401.369 93.0914 445.206C92.1293 445.238 91.1632 445.255 90.1932 445.255C89.2188 445.255 88.2483 445.238 87.2818 445.205C84.4542 401.469 49.3959 366.539 5.89522 363.8C5.85928 362.803 5.84059 361.802 5.83946 360.796C5.84059 359.792 5.85925 358.79 5.89529 357.791C34.3913 355.997 59.2644 340.389 73.828 317.541H106.559C121.122 340.389 145.995 355.997 174.491 357.791C174.527 358.789 174.546 359.79 174.547 360.796C174.546 361.735 174.53 362.671 174.498 363.603ZM6.03844 366.548C7.88154 393.541 22.3835 417.068 43.6329 431.203V389.6H46.3603C46.3603 411.166 61.901 429.434 82.8864 433.04C75.1456 396.678 44.013 369.058 6.03844 366.548ZM84.5526 445.068C70.6308 444.145 57.6283 439.831 46.3603 432.943V405.222C51.8945 421.291 66.0276 433.424 83.4493 435.932C83.9776 438.926 84.3483 441.974 84.5526 445.068ZM43.4385 470.567C22.2954 484.716 7.87641 508.182 6.03854 535.092C44.0224 532.568 75.1608 504.799 82.8921 468.387C61.8054 472.09 46.1658 490.406 46.1658 512.041H43.4385V470.567ZM46.1658 468.817V496.418C51.7175 480.491 65.9224 468.146 83.4199 465.685C83.9526 462.699 84.3287 459.659 84.5394 456.573C70.5424 457.503 57.475 461.861 46.1658 468.817ZM109.795 317.541C123.943 338.783 147.426 353.254 174.348 355.043C172.505 328.05 158.003 304.524 136.754 290.388V312.396C141.269 313.959 146.118 314.807 151.17 314.807V317.541H136.754V331.992H134.026C134.026 326.946 133.175 322.08 131.603 317.541H109.795ZM107.773 278.179C117.278 280.201 126.192 283.83 134.221 288.768V311.43C133.25 311.025 132.298 310.586 131.364 310.115C126.955 301.884 120.186 295.101 111.927 290.733C109.95 286.848 108.531 282.628 107.773 278.179ZM133.267 314.107C133.584 314.239 133.901 314.368 134.221 314.493V315.002H133.633C133.514 314.703 133.392 314.404 133.267 314.107ZM129.384 312.272C129.831 313.165 130.249 314.076 130.635 315.002H108.169C103.227 306.978 99.5864 298.065 97.5415 288.559C101.883 289.309 105.991 290.687 109.776 292.592C114.181 300.96 121.043 307.846 129.384 312.272ZM108.034 288.901C104.557 287.459 100.863 286.426 97.0078 285.865C96.4533 282.805 96.0632 279.689 95.8471 276.524C98.9127 276.728 101.934 277.096 104.902 277.62C105.474 281.558 106.54 285.34 108.034 288.901ZM114.763 295.53C117.878 300.11 121.831 304.069 126.403 307.188C123.295 302.618 119.347 298.655 114.763 295.53ZM93.1047 276.386C94.0122 290.423 98.2396 303.553 105.001 315.002H75.386C82.147 303.553 86.3745 290.423 87.2819 276.386C88.2492 276.353 89.2198 276.337 90.1932 276.337C91.1676 276.337 92.1382 276.353 93.1047 276.386ZM95.7038 273.777C98.7049 273.967 101.666 274.31 104.579 274.8C104.47 273.504 104.415 272.193 104.415 270.869C104.415 269.486 104.475 268.116 104.594 266.762C101.662 267.247 98.694 267.585 95.6969 267.77C95.6644 268.734 95.648 269.702 95.648 270.674C95.648 271.713 95.6667 272.747 95.7038 273.777ZM92.9637 267.897C92.935 268.819 92.9206 269.745 92.9206 270.674C92.9206 271.669 92.9373 272.66 92.9703 273.647C92.0481 273.618 91.1223 273.603 90.1932 273.603C89.2656 273.603 88.3398 273.618 87.4162 273.647C87.4493 272.66 87.4659 271.669 87.4659 270.674C87.4659 269.745 87.4514 268.819 87.4226 267.897C88.3438 267.926 89.2674 267.94 90.1932 267.94C91.119 267.94 92.0426 267.926 92.9637 267.897ZM95.8339 265.019C98.8989 264.816 101.935 264.447 104.931 263.918C105.506 260.083 106.549 256.398 107.999 252.922C104.516 254.353 100.809 255.371 96.9311 255.912C96.4061 258.897 96.0374 261.936 95.8339 265.019ZM97.4482 253.228C99.4424 243.712 103.035 234.782 107.93 226.736H130.83C130.463 227.614 130.069 228.478 129.648 229.328C121.144 233.771 114.156 240.762 109.707 249.278C105.911 251.156 101.795 252.506 97.4482 253.228ZM114.148 246.747C117.527 241.499 121.986 237.019 127.213 233.62C123.843 238.855 119.39 243.341 114.148 246.747ZM111.61 251.252C120.23 246.797 127.201 239.712 131.569 231.13C132.374 230.729 133.193 230.352 134.026 230V252.881C125.906 257.859 117.034 261.398 107.739 263.371C108.448 259.09 109.769 255.019 111.61 251.252ZM136.753 251.136C141.396 248.037 145.769 244.452 149.806 240.405C164.433 225.743 173.017 206.659 174.361 186.304C147.433 188.089 123.945 202.561 109.795 223.806H131.931C133.418 219.379 134.221 214.648 134.221 209.746H136.753V223.806H151.17V226.54C146.118 226.54 141.268 227.389 136.753 228.952V251.136ZM134.026 227.322C133.733 227.438 133.441 227.557 133.15 227.68C133.279 227.367 133.404 227.052 133.525 226.736H134.026V227.322ZM104.728 226.736C98.089 238.146 93.9581 251.206 93.0914 265.157C92.1278 265.189 91.1616 265.206 90.1932 265.206C89.2246 265.206 88.2582 265.189 87.2943 265.157C86.4235 251.206 82.2736 238.146 75.6152 226.736H104.728ZM174.498 183.555C145.89 185.34 121.04 200.951 106.511 223.806H73.8279C59.2631 200.956 34.3868 185.347 5.88768 183.556C5.85662 182.623 5.8405 181.686 5.83946 180.747C5.84051 179.807 5.85691 178.87 5.88841 177.938C27.0049 176.605 46.7035 167.628 61.9455 152.529C77.0082 137.25 85.9638 117.504 87.2931 96.3373C88.2558 96.3046 89.2226 96.2881 90.1932 96.2881C91.1634 96.2881 92.1299 96.3046 93.0923 96.3372C95.828 140.167 130.929 175.199 174.498 177.938C174.53 178.871 174.546 179.807 174.547 180.747C174.546 181.685 174.53 182.621 174.498 183.555ZM83.4199 285.636C83.9528 282.649 84.3289 279.608 84.5396 276.522C81.4182 276.726 78.3331 277.101 75.2939 277.64C74.7395 281.488 73.7192 285.188 72.2894 288.677C75.7972 287.221 79.5271 286.184 83.4199 285.636ZM82.8921 288.339C80.8562 297.927 77.1972 306.916 72.2175 315.002H49.5554C49.9357 314.09 50.3457 313.193 50.7844 312.312C59.2685 307.86 66.1673 300.899 70.5505 292.435C74.3686 290.507 78.5129 289.108 82.8921 288.339ZM65.8613 295.176C62.6278 300.031 58.4587 304.205 53.6104 307.44C56.8413 302.605 61.0045 298.429 65.8613 295.176ZM68.633 290.388C60.142 294.824 53.2192 301.811 48.8323 310.21C47.9596 310.645 47.0704 311.052 46.1658 311.43V288.759C54.3157 283.72 63.2294 280.144 72.6163 278.16C71.882 282.484 70.5221 286.592 68.633 290.388ZM43.4385 290.519V312.462C38.9789 313.983 34.1956 314.807 29.217 314.807V317.541H43.4385V331.992H46.1658C46.1658 326.947 47.0163 322.082 48.588 317.541H70.5912C56.444 338.783 32.9608 353.254 6.03869 355.043C7.42452 334.761 16.0002 315.753 30.5806 301.138C34.569 297.14 38.8731 293.592 43.4385 290.519ZM46.6669 315.002C46.787 314.69 46.9105 314.379 47.0373 314.07C46.7483 314.19 46.4578 314.308 46.1658 314.422V315.002H46.6669ZM84.7386 270.674C84.7386 269.702 84.7222 268.734 84.6897 267.77C81.6252 267.58 78.5906 267.232 75.5951 266.729C75.7156 268.094 75.7772 269.474 75.7772 270.869C75.7772 272.202 75.7218 273.522 75.6131 274.828C78.6023 274.321 81.629 273.969 84.6827 273.776C84.7198 272.747 84.7386 271.712 84.7386 270.674ZM84.5526 265.019C84.3485 261.926 83.9781 258.878 83.4504 255.884C79.4803 255.312 75.681 254.241 72.1152 252.737C73.6012 256.256 74.6689 259.992 75.2552 263.882C78.3164 264.431 81.4194 264.812 84.5526 265.019ZM72.4565 226.736C77.3461 234.773 80.9356 243.69 82.9312 253.194C78.4558 252.43 74.2276 250.999 70.3443 249.011C65.9838 240.793 59.2502 234.015 51.0736 229.609C50.5997 228.669 50.1586 227.711 49.7515 226.736H72.4565ZM66.0943 246.525C62.8076 241.486 58.52 237.164 53.5123 233.843C56.7912 238.87 61.073 243.196 66.0943 246.525ZM46.9301 226.736C47.0698 227.098 47.2138 227.458 47.3622 227.816C47.0302 227.673 46.6962 227.535 46.3603 227.4V226.736H46.9301ZM48.9185 231.18C48.0807 230.76 47.2277 230.367 46.3603 230V252.881C54.48 257.859 63.3526 261.398 72.6472 263.371C71.9318 259.048 70.5915 254.939 68.7221 251.14C60.2091 246.7 53.2813 239.697 48.9185 231.18ZM29.217 223.806H43.6329V209.746H46.3603C46.3603 214.648 47.1631 219.379 48.6501 223.806H70.5911C56.4412 202.56 32.9515 188.088 6.02279 186.303C7.35768 206.797 15.9433 225.733 30.5806 240.405C34.6175 244.452 38.9903 248.037 43.6329 251.136V228.952C39.118 227.389 34.2681 226.54 29.217 226.54V223.806ZM95.8339 85.166C137.903 82.3769 171.579 48.6207 174.361 6.4501C132.292 9.23914 98.6163 42.9954 95.8339 85.166ZM90.1932 88.0863C91.1201 88.0863 92.0437 88.0716 92.9638 88.0425C92.9351 88.9649 92.9206 89.8909 92.9206 90.8203C92.9206 91.7497 92.9351 92.6757 92.964 93.598C92.0438 93.5689 91.1201 93.5542 90.1932 93.5542C89.2661 93.5542 88.3424 93.5688 87.4222 93.5977C87.4513 92.6742 87.4659 91.7483 87.4659 90.8203C87.4659 89.8921 87.4513 88.9662 87.4222 88.0427C88.3425 88.0717 89.2662 88.0863 90.1932 88.0863ZM95.8339 96.4745C98.6163 138.645 132.292 172.401 174.361 175.19C171.579 133.02 137.903 99.2636 95.8339 96.4745ZM6.02517 6.44754C8.80634 48.6194 42.4821 82.3769 84.5524 85.166C83.2087 64.8103 74.6248 45.7269 59.9974 31.0644C45.36 16.3918 26.4701 7.78561 6.02517 6.44754ZM84.5524 96.4745C42.4821 99.2636 8.80634 133.021 6.02517 175.193C26.4701 173.855 45.36 165.249 59.9974 150.576C74.6248 135.914 83.2086 116.83 84.5524 96.4745ZM267.04 447.945C267.96 447.974 268.884 447.989 269.811 447.989C270.738 447.989 271.661 447.974 272.581 447.945C272.552 448.867 272.538 449.793 272.538 450.723C272.538 451.719 272.554 452.712 272.588 453.701C271.6 453.668 270.609 453.652 269.616 453.652C268.752 453.652 267.891 453.664 267.034 453.69C267.066 452.705 267.083 451.716 267.083 450.723C267.083 449.793 267.069 448.867 267.04 447.945ZM269.811 445.255C270.781 445.255 271.747 445.238 272.71 445.206C275.443 401.532 310.391 366.346 354.115 363.604C354.146 362.704 354.162 361.8 354.164 360.893H353.969C353.969 359.851 353.951 358.812 353.913 357.779C310.505 354.948 275.549 320.06 272.722 276.393C271.691 276.356 270.656 276.337 269.616 276.337C268.707 276.337 267.801 276.351 266.899 276.38C264.07 320.184 228.91 355.157 185.317 357.803C185.283 358.764 185.264 359.729 185.262 360.698H185.457C185.457 361.671 185.473 362.64 185.506 363.605C229.074 366.344 264.176 401.376 266.911 445.206C267.874 445.238 268.84 445.255 269.811 445.255ZM272.588 273.653C271.601 273.62 270.61 273.603 269.616 273.603C268.752 273.603 267.891 273.616 267.034 273.641C267.066 272.656 267.083 271.667 267.083 270.674C267.083 269.744 267.069 268.819 267.04 267.896C267.96 267.925 268.884 267.94 269.811 267.94C270.737 267.94 271.661 267.925 272.581 267.896C272.552 268.819 272.538 269.744 272.538 270.674C272.538 271.671 272.554 272.664 272.588 273.653ZM275.465 276.537C275.681 279.697 276.071 282.81 276.625 285.865C294.014 288.396 308.121 300.518 313.838 316.565V288.888C302.537 281.895 289.469 277.501 275.465 276.537ZM353.769 355.03C315.951 352.429 284.955 324.8 277.159 288.559C298.123 292.182 313.643 310.44 313.643 331.992H316.37H316.565V290.649C337.599 304.809 351.933 328.208 353.769 355.03ZM356.513 355.174C353.699 311.5 318.891 276.607 275.321 273.787C275.284 272.754 275.265 271.716 275.265 270.674C275.265 269.701 275.282 268.732 275.314 267.767C318.869 265.027 353.81 229.996 356.699 186.167C357.668 186.134 358.642 186.117 359.619 186.117V183.383C358.688 183.383 357.761 183.398 356.838 183.427C356.87 182.505 356.888 181.579 356.892 180.649H356.697C356.695 179.785 356.68 178.922 356.654 178.061C357.638 178.094 358.627 178.111 359.619 178.111V175.377C358.584 175.377 357.553 175.358 356.527 175.321C355.222 154.13 346.418 134.234 331.176 119.136C318.835 106.765 303.572 98.6243 287 95.2799C286.841 93.7504 286.759 92.1974 286.759 90.625C286.759 89.1916 286.827 87.7743 286.96 86.3762C324.95 78.6939 354.063 46.0099 356.698 6.31355C357.668 6.28042 358.641 6.26372 359.619 6.26372V3.52979C358.688 3.52979 357.761 3.54447 356.837 3.57362C356.87 2.65113 356.888 1.72513 356.892 0.795837H354.164C354.164 1.76841 354.148 2.73717 354.115 3.70185C325.625 5.48859 300.861 21.0495 286.307 43.7576H253.32C238.739 21.0141 213.923 5.48921 185.506 3.70234C185.473 2.7375 185.457 1.76858 185.457 0.795837H182.729C182.729 1.72517 182.744 2.6511 182.773 3.57341C181.853 3.5444 180.929 3.52979 180.002 3.52979V6.26372C180.972 6.26372 181.939 6.28017 182.901 6.31281C185.388 46.1611 214.629 78.7377 252.662 86.3856C252.794 87.7806 252.862 89.1948 252.862 90.625C252.862 92.1769 252.781 93.7099 252.625 95.22C214.401 102.821 185.192 135.558 182.706 175.334C181.808 175.362 180.907 175.377 180.002 175.377V178.111C180.863 178.111 181.722 178.098 182.578 178.073C182.549 178.993 182.534 179.917 182.534 180.845H182.73C182.732 181.708 182.746 182.569 182.773 183.427C181.853 183.398 180.929 183.383 180.002 183.383V186.117C180.972 186.117 181.939 186.134 182.901 186.166C185.637 229.996 220.738 265.028 264.307 267.767C264.339 268.732 264.356 269.701 264.356 270.674C264.356 271.708 264.337 272.738 264.3 273.763C220.551 276.412 185.545 311.539 182.719 355.187C181.817 355.216 180.911 355.23 180.002 355.23V357.964C180.866 357.964 181.726 357.952 182.584 357.926C182.551 358.911 182.534 359.901 182.534 360.893H182.73C182.732 361.757 182.746 362.618 182.773 363.476C181.853 363.447 180.929 363.432 180.002 363.432V366.166C180.972 366.166 181.939 366.182 182.901 366.215C185.637 410.044 220.738 445.077 264.307 447.816C264.339 448.781 264.356 449.75 264.356 450.723C264.356 451.757 264.337 452.787 264.3 453.812C220.551 456.461 185.545 491.588 182.719 535.236C181.817 535.265 180.911 535.279 180.002 535.279V538.013C180.866 538.013 181.726 538 182.584 537.975C182.551 538.96 182.534 539.949 182.534 540.942H182.73C182.732 541.872 182.748 542.798 182.779 543.72C181.857 543.691 180.931 543.676 180.002 543.676V546.215C180.972 546.215 181.939 546.231 182.901 546.264C185.388 586.106 214.619 618.678 252.643 626.333C252.788 627.792 252.862 629.273 252.862 630.771C252.862 632.195 252.734 633.747 252.582 635.219C214.42 642.919 185.299 675.685 182.891 715.455C181.928 715.523 180.965 715.523 180.002 715.523V718.062H182.772C182.744 718.97 182.729 719.881 182.729 720.796H185.457C185.457 674.319 223.056 636.239 269.616 636.239C316.176 636.239 353.97 674.124 353.97 720.796H356.697C356.697 678.608 326.798 643.197 286.923 635.197C286.759 633.722 286.759 632.247 286.759 630.771C286.759 629.273 286.833 627.791 286.978 626.331C324.903 618.686 353.978 586.21 356.686 546.46C357.66 546.427 358.637 546.41 359.619 546.41V543.676C358.686 543.676 357.756 543.691 356.83 543.72C356.867 542.733 356.888 541.742 356.892 540.747H356.697C356.695 539.816 356.678 538.888 356.648 537.963C357.635 537.996 358.625 538.013 359.619 538.013V535.279C358.581 535.279 357.547 535.26 356.517 535.223C355.179 513.966 346.38 494.295 331.176 479.234C315.983 464.004 296.361 455.185 275.321 453.834C275.284 452.802 275.265 451.764 275.265 450.723C275.265 449.75 275.282 448.781 275.314 447.816C318.869 445.076 353.81 410.045 356.699 366.216C357.668 366.183 358.642 366.166 359.619 366.166V363.432C358.688 363.432 357.761 363.447 356.838 363.476C356.87 362.554 356.888 361.628 356.892 360.698H356.697C356.695 359.767 356.678 358.839 356.647 357.914C357.634 357.947 358.624 357.964 359.619 357.964V355.23C358.579 355.23 357.544 355.211 356.513 355.174ZM354.115 183.555C354.146 182.655 354.162 181.751 354.164 180.845H353.969C353.969 179.869 353.953 178.896 353.921 177.926C325.422 176.07 300.566 160.396 286.052 137.492H253.569C238.989 160.501 213.972 176.213 185.31 177.95C185.28 178.846 185.264 179.746 185.262 180.649H185.457C185.457 181.622 185.473 182.591 185.506 183.556C229.074 186.295 264.176 221.327 266.911 265.157C267.874 265.189 268.84 265.206 269.811 265.206C270.78 265.206 271.747 265.189 272.709 265.157C275.432 221.32 310.384 186.284 354.115 183.555ZM277.065 253.228C284.719 216.704 315.912 188.827 353.978 186.304C352.198 213.296 337.76 236.841 316.565 251.025V209.746H313.838C313.838 231.397 298.176 249.723 277.065 253.228ZM276.548 255.912C294.056 253.468 308.091 241.307 313.838 225.369V252.775C302.525 259.733 289.453 264.091 275.451 265.02C275.655 261.936 276.023 258.897 276.548 255.912ZM264.17 265.02C263.966 261.936 263.598 258.897 263.073 255.912C245.559 253.468 231.338 241.304 225.783 225.173V252.775C237.095 259.732 250.168 264.091 264.17 265.02ZM185.643 186.304C223.709 188.827 254.902 216.705 262.555 253.228C241.445 249.723 225.783 231.397 225.783 209.746H223.055V251.024C201.861 236.841 187.424 213.296 185.643 186.304ZM225.783 288.648C237.1 281.73 250.167 277.409 264.157 276.511C263.947 279.601 263.57 282.646 263.037 285.636C245.539 288.098 231.334 300.442 225.783 316.369V288.648ZM223.055 290.388C201.803 304.526 187.3 328.058 185.46 355.056C223.533 352.614 254.765 324.813 262.509 288.339C241.422 292.041 225.783 310.357 225.783 331.992H223.055V290.388ZM354.109 543.849C354.143 542.884 354.162 541.915 354.164 540.942H353.969C353.969 539.901 353.951 538.862 353.914 537.828C310.506 534.997 275.549 500.109 272.722 456.442C271.689 456.405 270.654 456.386 269.616 456.386C268.707 456.386 267.801 456.4 266.899 456.429C264.07 500.233 228.91 535.206 185.317 537.852C185.283 538.813 185.264 539.778 185.262 540.747H185.457C185.457 541.786 185.475 542.82 185.513 543.849C213.927 545.638 238.74 561.162 253.32 583.904H286.308C300.86 561.198 325.621 545.638 354.109 543.849ZM289.543 583.904C303.704 562.769 327.126 548.381 353.965 546.597C352.128 573.508 337.709 596.973 316.565 611.122V588.983C321.025 587.462 325.808 586.638 330.787 586.638V583.904H316.565V569.844H313.838C313.838 574.745 313.035 579.477 311.548 583.904H289.543ZM310.608 586.443H287.907C282.863 594.584 279.16 603.647 277.108 613.319C281.436 612.596 285.534 611.25 289.315 609.38C293.751 600.688 300.822 593.549 309.455 589.037C309.866 588.187 310.251 587.322 310.608 586.443ZM306.831 593.718C301.603 597.116 297.143 601.597 293.765 606.845C299.007 603.439 303.46 598.953 306.831 593.718ZM291.225 611.354C299.889 606.884 306.911 599.764 311.363 591.14C312.174 590.74 313 590.365 313.838 590.015V612.873C305.8 617.816 296.874 621.448 287.357 623.469C288.065 619.19 289.385 615.12 291.225 611.354ZM287.656 613.005C284.171 614.439 280.463 615.46 276.584 616.005C276.051 618.991 275.675 622.031 275.464 625.116C278.589 624.909 281.667 624.53 284.69 623.99C285.233 620.163 286.241 616.481 287.656 613.005ZM313.838 587.029C313.6 587.123 313.363 587.22 313.126 587.318C313.245 587.028 313.361 586.736 313.474 586.443H313.838V587.029ZM284.741 586.443H254.887C261.716 597.938 265.986 611.137 266.899 625.254C267.865 625.287 268.836 625.304 269.811 625.304C270.785 625.304 271.756 625.287 272.722 625.254C273.636 611.159 277.905 597.953 284.741 586.443ZM272.588 627.994C271.665 628.023 270.74 628.038 269.811 628.038C268.881 628.038 267.956 628.023 267.033 627.994C267.066 628.981 267.083 629.972 267.083 630.967C266.96 631.829 266.915 632.691 266.898 633.553C267.865 633.521 268.836 633.505 269.811 633.505C270.759 633.505 271.703 633.521 272.644 633.551L272.635 633.408C272.586 632.578 272.538 631.748 272.538 630.967C272.538 629.972 272.554 628.981 272.588 627.994ZM275.303 633.677C275.265 632.773 275.265 631.87 275.265 630.967C275.265 629.928 275.284 628.894 275.321 627.865C278.385 627.672 281.406 627.319 284.377 626.814C284.277 628.056 284.227 629.31 284.227 630.576C284.227 631.991 284.227 633.405 284.328 634.718C281.368 634.218 278.357 633.868 275.303 633.677ZM185.643 546.401C187.424 573.394 201.861 596.938 223.055 611.122V588.983C218.596 587.462 213.813 586.638 208.834 586.638V583.904H223.055V569.844H225.783C225.783 574.745 226.585 579.477 228.072 583.904H250.208C236.059 562.659 212.57 548.186 185.643 546.401ZM225.783 590.015V612.872C233.821 617.816 242.747 621.448 252.264 623.469C251.557 619.197 250.24 615.134 248.406 611.373C239.73 606.918 232.678 599.81 228.275 591.148C227.458 590.746 226.627 590.368 225.783 590.015ZM232.79 593.718C236.16 598.953 240.613 603.439 245.856 606.845C242.477 601.597 238.018 597.116 232.79 593.718ZM230.101 588.902C238.894 593.428 246.089 600.67 250.565 609.508C254.287 611.317 258.311 612.621 262.555 613.326C260.529 603.655 256.852 594.591 251.835 586.443H229.013C229.351 587.275 229.714 588.096 230.101 588.902ZM255.131 624.026C254.595 620.223 253.599 616.565 252.202 613.109C255.634 614.493 259.276 615.48 263.073 616.01C263.598 618.995 263.966 622.033 264.17 625.117C261.109 624.914 258.094 624.547 255.131 624.026ZM226.204 586.443H225.783V586.952C226.027 587.048 226.271 587.146 226.514 587.245C226.462 587.115 226.411 586.985 226.361 586.855C226.308 586.718 226.256 586.58 226.204 586.443ZM264.307 627.865C261.309 627.677 258.351 627.335 255.442 626.849C255.539 628.079 255.589 629.322 255.589 630.576C255.527 631.261 255.485 631.926 255.443 632.578L255.443 632.579C255.397 633.306 255.352 634.016 255.281 634.719C258.207 634.225 261.183 633.877 264.2 633.684L264.205 633.615L264.211 633.519L264.216 633.435C264.225 633.291 264.235 633.147 264.245 633.003L264.258 632.822C264.307 632.138 264.356 631.455 264.356 630.771C264.356 629.799 264.339 628.83 264.307 627.865ZM353.978 366.352C351.196 408.523 317.521 442.279 275.451 445.068C278.233 402.898 311.909 369.141 353.978 366.352ZM353.772 535.079C311.868 532.198 278.34 498.59 275.465 456.586C295.694 457.978 314.651 466.574 329.228 481.186C343.816 495.809 352.393 514.665 353.772 535.079ZM185.46 535.105C188.332 492.959 222.064 459.26 264.157 456.56C261.286 498.706 227.554 532.405 185.46 535.105ZM264.17 445.068C261.387 402.898 227.712 369.142 185.643 366.352C188.425 408.523 222.1 442.279 264.17 445.068ZM107.739 638.074C144.105 645.797 171.847 677.034 174.361 715.141C147.433 713.356 123.945 698.884 109.795 677.639H151.17V674.905C129.3 674.905 111.202 658.997 107.739 638.074ZM135.585 674.905H108.049C101.108 663.565 96.76 650.461 95.8339 636.426C98.9041 636.629 101.93 636.998 104.902 637.522C107.424 654.863 119.511 669.188 135.585 674.905ZM90.1932 633.505C91.1203 633.505 92.0439 633.52 92.964 633.549C92.9351 632.627 92.9206 631.701 92.9206 630.771C92.9206 629.843 92.9349 628.917 92.9634 627.994C92.0434 628.023 91.1199 628.038 90.1932 628.038C89.2642 628.038 88.3384 628.023 87.4162 627.994C87.4493 628.981 87.4659 629.972 87.4659 630.967C87.4659 631.83 87.4533 632.691 87.4281 633.549C88.3463 633.52 89.2681 633.505 90.1932 633.505ZM95.648 630.771C95.648 631.744 95.6644 632.713 95.6969 633.677C98.7013 633.866 101.664 634.207 104.578 634.694C104.47 633.401 104.415 632.092 104.415 630.771C104.415 629.453 104.469 628.144 104.576 626.846C101.662 627.334 98.6995 627.676 95.697 627.865C95.6644 628.831 95.648 629.8 95.648 630.771ZM104.895 624.022C101.925 624.546 98.902 624.914 95.8341 625.117C96.7403 611.39 100.939 598.242 108.063 586.638H135.39C128.961 588.981 123.117 592.692 118.051 597.769C110.884 604.953 106.321 614.095 104.895 624.022ZM104.835 586.638C97.9495 598.354 93.9371 611.504 93.09 625.255C92.1283 625.287 91.1627 625.304 90.1932 625.304C89.2188 625.304 88.2483 625.287 87.2818 625.254C86.3743 611.217 82.1469 598.088 75.3859 586.638H104.835ZM151.17 583.904H109.815C112.876 579.323 116.409 575.005 120.389 571.016C135.026 556.343 153.916 547.737 174.361 546.399C171.848 584.515 144.096 615.757 107.719 623.473C109.176 614.416 113.366 606.175 120 599.526C128.377 591.129 139.481 586.638 151.17 586.638V583.904ZM104.886 674.905C98.1605 663.448 93.968 650.319 93.0923 636.288C92.1299 636.256 91.1634 636.239 90.1932 636.239C89.2266 636.239 88.2638 636.255 87.305 636.288C86.4547 650.307 82.268 663.44 75.5348 674.905H104.886ZM72.2175 586.638C79.1957 597.97 83.5805 611.074 84.5395 625.116C81.4049 624.908 78.317 624.528 75.285 623.985C72.7508 606.66 60.6696 592.351 44.6072 586.638H72.2175ZM70.4607 583.904H29.217V586.638C51.0863 586.638 69.1848 602.545 72.6472 623.469C36.3434 615.759 8.63485 584.616 6.0385 546.597C32.8781 548.381 56.2998 562.769 70.4607 583.904ZM84.6827 627.865C81.6139 627.671 78.5871 627.318 75.6107 626.813C75.7209 628.118 75.7772 629.438 75.7772 630.771C75.7772 632.103 75.7218 633.423 75.6133 634.727C78.5921 634.222 81.6223 633.87 84.696 633.677C84.7243 632.777 84.7386 631.873 84.7386 630.967C84.7386 629.928 84.7198 628.894 84.6827 627.865ZM84.5653 636.425C81.4243 636.633 78.33 637.013 75.2918 637.557C72.7906 654.882 60.8427 669.191 44.6072 674.905H72.4565C79.3603 663.557 83.6721 650.454 84.5653 636.425ZM70.7208 677.639H29.217V674.905C51.0864 674.905 69.1848 658.997 72.6472 638.074C36.2187 645.81 8.44451 677.141 6.01262 715.338C33.028 713.551 56.5831 698.994 70.7208 677.639ZM353.785 175.177C326.856 173.33 303.385 158.793 289.283 137.492H330.787V134.758C309.003 134.758 290.961 118.975 287.398 98.1731C303.085 101.551 317.56 109.392 329.228 121.089C343.862 135.758 352.447 154.688 353.785 175.177ZM287.666 134.954H315.202C299.139 129.24 287.058 114.932 284.524 97.6068C281.536 97.0721 278.509 96.6978 275.452 96.4879C276.38 110.519 280.728 123.617 287.666 134.954ZM284.503 134.954C277.779 123.499 273.587 110.372 272.71 96.3441C271.681 96.3069 270.65 96.2881 269.616 96.2881C268.711 96.2881 267.81 96.3024 266.912 96.3308C266.037 110.364 261.844 123.495 255.118 134.954H284.503ZM272.581 93.6034C271.595 93.5706 270.607 93.5542 269.616 93.5542C268.754 93.5542 267.895 93.5668 267.04 93.5918C267.069 92.6715 267.083 91.7476 267.083 90.8203C267.083 89.8909 267.069 88.965 267.04 88.0427C267.96 88.0717 268.884 88.0863 269.811 88.0863C270.738 88.0863 271.661 88.0716 272.581 88.0425C272.552 88.965 272.538 89.891 272.538 90.8203C272.538 91.7514 272.552 92.6792 272.581 93.6034ZM275.314 93.7363C278.307 93.9282 281.27 94.2711 284.197 94.7621C284.087 93.4621 284.032 92.1475 284.032 90.8203C284.032 89.4964 284.087 88.1849 284.196 86.8882C281.281 87.3788 278.318 87.723 275.314 87.9129C275.282 88.878 275.265 89.8472 275.265 90.8203C275.265 91.7962 275.282 92.7683 275.314 93.7363ZM275.451 85.166C278.521 84.9625 281.547 84.594 284.519 84.0694C287.042 66.7285 299.128 52.404 315.202 46.6868H287.666C280.725 58.0268 276.377 71.1303 275.451 85.166ZM272.71 85.3033C273.587 71.2943 277.778 58.1586 284.51 46.6868H255.118C261.843 58.1437 266.036 71.2727 266.911 85.3033C267.874 85.3359 268.84 85.3524 269.811 85.3524C270.781 85.3524 271.747 85.3359 272.71 85.3033ZM289.543 43.7576H330.787V46.4916C308.847 46.4916 290.702 62.5016 287.324 83.5248C323.706 75.8135 351.463 44.5695 353.978 6.45009C327.133 8.22973 303.706 22.6189 289.543 43.7576ZM224.224 46.6868H251.955C258.895 58.0268 263.244 71.1303 264.17 85.166C261.031 84.9579 257.938 84.5774 254.902 84.0338C252.368 66.7088 240.287 52.4001 224.224 46.6868ZM208.834 43.7576H250.078C235.915 22.619 212.488 8.22987 185.643 6.45011C188.158 44.5694 215.915 75.8133 252.297 83.5247C248.918 62.5015 230.774 46.4916 208.834 46.4916V43.7576ZM255.228 86.8613C258.206 87.3671 261.236 87.7206 264.307 87.9138C264.339 88.8786 264.356 89.8475 264.356 90.8203C264.356 91.7888 264.339 92.7535 264.307 93.7142C261.236 93.9 258.208 94.2457 255.231 94.7433C255.339 93.4495 255.394 92.1411 255.394 90.8203C255.394 89.4872 255.338 88.1668 255.228 86.8613ZM254.907 97.5711C257.942 97.0354 261.033 96.6625 264.171 96.4618C263.246 110.502 258.898 123.61 251.955 134.954H224.224C240.298 129.237 252.384 114.912 254.907 97.5711ZM208.834 137.492H250.338C236.168 158.896 212.539 173.47 185.447 175.203C187.96 137.033 215.782 105.754 252.232 98.0885C248.673 118.933 230.473 134.758 208.834 134.758V137.492Z" fill="url(#paint0_linear)" fill-opacity="0.1"></path> <defs> <linearGradient id="paint0_linear" x1="172.385" y1="467.796" x2="327.885" y2="-63.2042" gradientUnits="userSpaceOnUse"> <stop stop-color="#4C8F8B"></stop> <stop offset="1" stop-color="#CCEAED"></stop> </linearGradient> </defs> </svg> 