<?xml version="1.0" encoding="UTF-8"?> <svg xmlns="http://www.w3.org/2000/svg" width="360" height="720" viewBox="0 0 360 720" fill="none"> <path opacity="0.2" fill-rule="evenodd" clip-rule="evenodd" d="M2.83215 2.77684C2.80331 1.85478 2.78878 0.929091 2.78878 0H5.51616C5.51616 0.971808 5.53254 1.93981 5.56505 2.90373C26.6816 4.21101 46.3802 13.037 61.6223 28.3157C76.685 43.5944 85.6406 63.3402 86.9699 84.5074C87.9326 84.5401 88.8994 84.5565 89.87 84.5565C90.8399 84.5565 91.8061 84.5401 92.7682 84.5075C95.4913 40.6711 130.444 5.63485 174.175 2.9052C174.207 1.94079 174.224 0.972301 174.224 0H176.951C176.951 0.929107 176.936 1.85493 176.907 2.77724C177.828 2.74845 178.751 2.73395 179.679 2.73395V5.46788C178.708 5.46788 177.741 5.48435 176.778 5.51702C174.033 49.1834 138.935 84.3649 95.3737 87.1171C95.3412 88.0822 95.3247 89.0514 95.3247 90.0244C95.3247 90.9974 95.3412 91.9666 95.3737 92.9317C138.935 95.6839 174.033 130.865 176.778 174.532C177.741 174.564 178.708 174.581 179.679 174.581V177.315C178.751 177.315 177.828 177.3 176.907 177.271C176.934 178.129 176.949 178.99 176.951 179.853H176.951L176.951 179.952L176.951 180.049H176.951C176.949 180.911 176.935 181.772 176.908 182.631C177.828 182.602 178.752 182.587 179.679 182.587V185.321C178.709 185.321 177.743 185.338 176.782 185.37C175.478 206.538 166.673 226.284 151.431 241.562C139.035 253.988 123.692 262.146 107.035 265.462C106.892 266.914 106.819 268.387 106.819 269.878C106.819 271.447 106.9 272.997 107.059 274.524C145.003 282.205 174.187 314.788 176.766 354.385C177.733 354.418 178.704 354.434 179.679 354.434V357.168C178.749 357.168 177.823 357.154 176.901 357.125C176.932 358.047 176.949 358.973 176.951 359.902L176.951 360L176.951 360.098C176.949 360.961 176.935 361.822 176.908 362.68C177.828 362.651 178.752 362.636 179.679 362.636V365.37C178.708 365.37 177.742 365.387 176.78 365.419C174.044 409.249 138.942 444.281 95.3737 447.02C95.3411 447.985 95.3247 448.954 95.3247 449.927C95.3247 450.965 95.3434 451.999 95.3805 453.028C139.044 455.756 173.953 490.691 176.768 534.434C177.734 534.467 178.704 534.483 179.679 534.483V537.217C178.75 537.217 177.824 537.203 176.902 537.173C176.933 538.096 176.949 539.022 176.951 539.951L176.951 540.049L176.951 540.146C176.949 541.01 176.935 541.871 176.908 542.728C177.829 542.7 178.752 542.685 179.679 542.685V545.419C178.709 545.419 177.743 545.435 176.78 545.467C174.293 585.312 145.058 617.887 107.029 625.539C106.889 627 106.819 628.48 106.819 629.976C106.819 631.473 106.893 632.952 107.037 634.411C145.173 642.077 174.294 674.771 176.779 714.483C177.742 714.516 178.708 714.532 179.679 714.532V717.266C178.752 717.266 177.828 717.251 176.908 717.222C176.937 718.145 176.951 719.071 176.951 720H174.224C174.224 719.027 174.207 718.058 174.175 717.094C145.676 715.302 120.8 699.693 106.235 676.843H73.5377C58.9776 699.672 34.0856 715.3 5.56515 717.094C5.53258 718.058 5.51616 719.027 5.51616 720H2.78878C2.78878 719.071 2.80336 718.145 2.8323 717.222C1.91214 717.251 0.98847 717.266 0.0615234 717.266V714.727C1.02784 714.727 1.99039 714.711 2.94889 714.679C5.35036 674.878 34.5046 642.089 72.7028 634.411C72.8473 632.952 72.9213 631.473 72.9213 629.976C72.9213 628.477 72.8472 626.997 72.7024 625.537C34.7405 617.895 5.54303 585.417 2.97288 545.664C2.00645 545.631 1.0359 545.614 0.0615234 545.614V542.88C0.990553 542.88 1.91629 542.895 2.83851 542.924C2.80761 542.002 2.79104 541.076 2.789 540.146H2.78878L2.78884 540.049L2.78878 539.951H2.789C2.79104 539.022 2.80766 538.096 2.83865 537.174C1.91638 537.203 0.9906 537.217 0.0615234 537.217V534.483C1.03607 534.483 2.00678 534.467 2.97339 534.434C5.79816 490.853 40.7036 455.77 84.3595 453.028C84.3966 451.999 84.4153 450.965 84.4153 449.927C84.4153 448.954 84.3989 447.985 84.3663 447.02C40.8624 444.285 5.80055 409.353 2.97286 365.615C2.00643 365.582 1.0359 365.565 0.0615234 365.565V362.832C0.990553 362.832 1.91629 362.846 2.83851 362.875C2.80761 361.953 2.79104 361.027 2.789 360.098H2.78878L2.78884 360L2.78878 359.902H2.789C2.791 358.974 2.80731 358.048 2.83783 357.125C1.91583 357.154 0.990326 357.168 0.0615234 357.168V354.434C1.03508 354.434 2.00481 354.418 2.97044 354.385C4.31669 333.292 13.1142 313.621 28.3092 298.389C40.5604 286.108 55.9781 277.877 72.6822 274.516C72.8403 272.992 72.9213 271.444 72.9213 269.878C72.9213 268.387 72.848 266.914 72.7047 265.462C56.0483 262.146 40.705 253.988 28.3092 241.562C13.2364 226.453 4.27886 206.705 2.9589 185.37C1.99709 185.338 1.03121 185.321 0.0615234 185.321V182.587C0.988294 182.587 1.91178 182.602 2.83178 182.631C2.80516 181.773 2.79087 180.912 2.789 180.049H2.78878L2.78884 179.951L2.78878 179.853H2.789C2.7909 178.99 2.80539 178.129 2.83231 177.271C1.91105 177.3 0.987376 177.315 0.0615234 177.315V174.581C1.03093 174.581 1.99748 174.565 2.96087 174.533C5.69346 130.859 40.6417 95.6727 84.3663 92.9304C84.3989 91.9642 84.4153 90.9954 84.4153 90.0244C84.4153 89.0533 84.3989 88.0844 84.3663 87.1179C40.7973 84.3784 5.69579 49.346 2.96041 5.51626C1.99716 5.48405 1.03078 5.46788 0.0615234 5.46788V2.73395C0.987324 2.73395 1.91095 2.74828 2.83215 2.77684ZM95.5238 455.777C109.521 456.707 122.589 461.066 133.898 468.021V495.622C128.177 479.565 114.054 467.437 96.6484 464.917C96.1131 461.922 95.7352 458.872 95.5238 455.777ZM136.43 511.245V469.642C157.679 483.777 172.181 507.303 174.025 534.296C136.117 531.777 105.028 504.115 97.2183 467.812C118.183 471.435 133.703 489.693 133.703 511.245H136.43ZM92.7814 455.639C95.6091 499.375 130.667 534.306 174.168 537.044C174.204 538.042 174.223 539.043 174.224 540.049C174.223 540.988 174.206 541.924 174.175 542.856C152.891 544.179 133.191 553.158 118.118 568.267C113.555 572.841 109.569 577.815 106.188 583.108H73.3798C58.7992 560.367 33.9867 544.842 5.57198 543.053C5.53604 542.056 5.51735 541.055 5.51621 540.049C5.51735 539.044 5.53603 538.042 5.57196 537.045C49.1372 534.316 84.235 499.452 86.971 455.639C87.9333 455.606 88.8997 455.59 89.87 455.59C90.8444 455.59 91.815 455.607 92.7814 455.639ZM92.6471 452.899C92.614 451.913 92.5974 450.922 92.5974 449.927C92.5974 448.997 92.6118 448.072 92.6405 447.149C91.7204 447.178 90.7968 447.193 89.87 447.193C88.9409 447.193 88.0152 447.178 87.093 447.149C87.126 448.136 87.1427 449.127 87.1427 450.122C87.1427 451.051 87.1282 451.977 87.0993 452.899C88.0193 452.871 88.9429 452.856 89.87 452.856C90.7991 452.856 91.7249 452.871 92.6471 452.899ZM133.703 432.147C122.435 439.035 109.432 443.35 95.5107 444.273C95.7141 441.189 96.0828 438.15 96.6079 435.165C114.115 432.721 128.147 420.56 133.703 404.622V432.147ZM136.43 430.408V388.999H133.897C133.897 410.65 118.235 428.976 97.125 432.481C104.778 395.957 135.972 368.08 174.038 365.557C172.251 392.632 157.731 416.238 136.43 430.408ZM174.175 362.808C130.444 365.537 95.4913 400.573 92.7682 444.41C91.8061 444.442 90.8399 444.459 89.87 444.459C88.8956 444.459 87.925 444.442 86.9586 444.409C84.1309 400.674 49.0727 365.743 5.57198 363.005C5.53603 362.007 5.51735 361.006 5.51621 360C5.51735 358.996 5.53601 357.994 5.57205 356.995C34.068 355.201 58.9412 339.593 73.5047 316.745H106.235C120.799 339.593 145.672 355.201 174.168 356.995C174.204 357.993 174.223 358.994 174.224 360C174.223 360.939 174.206 361.875 174.175 362.808ZM5.7152 365.752C7.5583 392.745 22.0603 416.272 43.3097 430.407V388.804H46.0371C46.0371 410.37 61.5777 428.638 82.5631 432.244C74.8223 395.882 43.6898 368.263 5.7152 365.752ZM84.2293 444.273C70.3075 443.35 57.305 439.035 46.0371 432.147V404.426C51.5712 420.495 65.7043 432.628 83.126 435.136C83.6543 438.13 84.025 441.178 84.2293 444.273ZM43.1152 469.771C21.9722 483.92 7.55316 507.386 5.71529 534.296C43.6992 531.772 74.8376 504.003 82.5689 467.592C61.4821 471.295 45.8426 489.61 45.8426 511.245H43.1152V469.771ZM45.8426 468.021V495.622C51.3942 479.695 65.5991 467.351 83.0966 464.889C83.6293 461.903 84.0055 458.863 84.2162 455.777C70.2192 456.707 57.1518 461.065 45.8426 468.021ZM109.472 316.745C123.619 337.987 147.103 352.458 174.025 354.247C172.181 327.254 157.679 303.728 136.43 289.593V311.6C140.945 313.163 145.795 314.011 150.846 314.011V316.745H136.43V331.196H133.703C133.703 326.15 132.852 321.285 131.28 316.745H109.472ZM107.45 277.383C116.955 279.406 125.869 283.034 133.898 287.972V310.634C132.927 310.229 131.974 309.79 131.04 309.319C126.632 301.088 119.863 294.305 111.604 289.937C109.627 286.052 108.208 281.832 107.45 277.383ZM132.944 313.312C133.26 313.444 133.578 313.572 133.898 313.697V314.207H133.31C133.191 313.907 133.069 313.608 132.944 313.312ZM129.061 311.476C129.508 312.37 129.925 313.28 130.312 314.207H107.846C102.904 306.182 99.2632 297.269 97.2183 287.763C101.56 288.513 105.668 289.891 109.453 291.796C113.858 300.164 120.72 307.05 129.061 311.476ZM107.711 288.105C104.234 286.663 100.54 285.63 96.6845 285.069C96.13 282.01 95.7399 278.893 95.5238 275.728C98.5895 275.932 101.611 276.3 104.578 276.824C105.151 280.762 106.217 284.544 107.711 288.105ZM114.44 294.734C117.555 299.314 121.508 303.274 126.08 306.392C122.972 301.822 119.023 297.859 114.44 294.734ZM92.7815 275.591C93.689 289.627 97.9164 302.757 104.677 314.207H75.0627C81.8237 302.757 86.0512 289.627 86.9586 275.59C87.926 275.557 88.8965 275.541 89.87 275.541C90.8444 275.541 91.815 275.558 92.7815 275.591ZM95.3806 272.981C98.3817 273.171 101.343 273.515 104.255 274.004C104.147 272.708 104.091 271.397 104.091 270.073C104.091 268.69 104.152 267.32 104.271 265.966C101.339 266.452 98.3707 266.789 95.3736 266.974C95.3411 267.938 95.3247 268.906 95.3247 269.878C95.3247 270.917 95.3435 271.951 95.3806 272.981ZM92.6405 267.101C92.6118 268.023 92.5974 268.949 92.5974 269.878C92.5974 270.873 92.614 271.864 92.6471 272.851C91.7248 272.822 90.799 272.807 89.87 272.807C88.9423 272.807 88.0166 272.822 87.093 272.851C87.126 271.864 87.1427 270.873 87.1427 269.878C87.1427 268.949 87.1282 268.023 87.0993 267.101C88.0205 267.13 88.9442 267.144 89.87 267.144C90.7957 267.144 91.7193 267.13 92.6405 267.101ZM95.5107 264.223C98.5756 264.02 101.612 263.652 104.608 263.122C105.183 259.287 106.226 255.602 107.675 252.127C104.193 253.557 100.486 254.575 96.6079 255.116C96.0828 258.101 95.7141 261.14 95.5107 264.223ZM97.125 252.432C99.1191 242.916 102.711 233.987 107.607 225.94H130.506C130.14 226.818 129.746 227.683 129.325 228.532C120.82 232.975 113.832 239.967 109.384 248.482C105.588 250.36 101.472 251.71 97.125 252.432ZM113.825 245.951C117.203 240.703 121.663 236.223 126.89 232.824C123.52 238.059 119.067 242.545 113.825 245.951ZM111.286 250.456C119.906 246.001 126.878 238.916 131.245 230.334C132.051 229.933 132.87 229.556 133.703 229.204V252.085C125.583 257.063 116.711 260.602 107.416 262.576C108.125 258.295 109.446 254.224 111.286 250.456ZM136.43 250.34C141.073 247.241 145.446 243.656 149.483 239.609C164.11 224.947 172.694 205.863 174.038 185.508C147.11 187.293 123.622 201.765 109.472 223.011H131.608C133.095 218.583 133.897 213.852 133.897 208.95H136.43V223.011H150.846V225.745C145.795 225.745 140.945 226.593 136.43 228.156V250.34ZM133.703 226.526C133.409 226.642 133.118 226.762 132.827 226.884C132.955 226.571 133.08 226.256 133.202 225.94H133.703V226.526ZM104.405 225.94C97.7657 237.35 93.6348 250.41 92.7682 264.361C91.8045 264.394 90.8383 264.41 89.87 264.41C88.9014 264.41 87.9349 264.394 86.971 264.361C86.1002 250.41 81.9503 237.35 75.292 225.94H104.405ZM174.175 182.759C145.567 184.544 120.717 200.155 106.187 223.011H73.5047C58.9399 200.16 34.0636 184.552 5.56444 182.76C5.53337 181.827 5.51726 180.89 5.51621 179.952C5.51727 179.011 5.53367 178.075 5.56517 177.142C26.6817 175.809 46.3802 166.832 61.6223 151.733C76.685 136.454 85.6406 116.709 86.9699 95.5414C87.9326 95.5087 88.8994 95.4923 89.87 95.4923C90.8402 95.4923 91.8066 95.5087 92.769 95.5414C95.5047 139.371 130.606 174.403 174.175 177.142C174.206 178.075 174.223 179.011 174.224 179.951C174.223 180.889 174.206 181.825 174.175 182.759ZM83.0966 284.84C83.6295 281.853 84.0057 278.812 84.2164 275.726C81.095 275.931 78.0099 276.305 74.9706 276.844C74.4163 280.692 73.396 284.392 71.9661 287.881C75.474 286.425 79.2038 285.388 83.0966 284.84ZM82.5689 287.543C80.533 297.131 76.874 306.12 71.8942 314.207H49.2322C49.6125 313.294 50.0225 312.397 50.4612 311.516C58.9452 307.064 65.844 300.103 70.2272 291.639C74.0453 289.711 78.1896 288.312 82.5689 287.543ZM65.538 294.38C62.3045 299.235 58.1355 303.409 53.2872 306.644C56.5181 301.809 60.6813 297.633 65.538 294.38ZM68.3098 289.592C59.8188 294.029 52.8959 301.015 48.5091 309.414C47.6364 309.849 46.7472 310.256 45.8426 310.634V287.963C53.9924 282.924 62.9062 279.348 72.2931 277.364C71.5588 281.689 70.1989 285.797 68.3098 289.592ZM43.1152 289.723V311.667C38.6556 313.187 33.8724 314.011 28.8937 314.011V316.745H43.1152V331.196H45.8426C45.8426 326.151 46.6931 321.286 48.2648 316.745H70.2679C56.1207 337.987 32.6375 352.458 5.71545 354.247C7.10129 333.965 15.6769 314.957 30.2573 300.342C34.2458 296.344 38.5499 292.796 43.1152 289.723ZM46.3437 314.207C46.4638 313.894 46.5872 313.584 46.714 313.274C46.4251 313.395 46.1346 313.512 45.8426 313.627V314.207H46.3437ZM84.4153 269.878C84.4153 268.906 84.3989 267.938 84.3664 266.974C81.3019 266.784 78.2673 266.436 75.2718 265.933C75.3924 267.298 75.4539 268.679 75.4539 270.073C75.4539 271.406 75.3985 272.727 75.2898 274.032C78.2791 273.525 81.3058 273.173 84.3595 272.981C84.3966 271.951 84.4153 270.917 84.4153 269.878ZM84.2294 264.223C84.0253 261.13 83.6549 258.082 83.1272 255.088C79.1571 254.516 75.3577 253.445 71.792 251.941C73.2779 255.46 74.3456 259.196 74.9319 263.086C77.9932 263.635 81.0962 264.016 84.2294 264.223ZM72.1333 225.94C77.0229 233.977 80.6124 242.895 82.6079 252.398C78.1326 251.634 73.9044 250.203 70.021 248.215C65.6606 239.998 58.927 233.219 50.7503 228.813C50.2765 227.874 49.8353 226.915 49.4283 225.94H72.1333ZM65.7711 245.729C62.4844 240.69 58.1968 236.369 53.1891 233.047C56.468 238.074 60.7498 242.4 65.7711 245.729ZM46.6069 225.94C46.7465 226.302 46.8905 226.662 47.039 227.02C46.7069 226.878 46.373 226.739 46.0371 226.604V225.94H46.6069ZM48.5952 230.385C47.7575 229.965 46.9044 229.571 46.0371 229.204V252.085C54.1567 257.063 63.0293 260.602 72.3239 262.576C71.6085 258.252 70.2682 254.143 68.3989 250.344C59.8858 245.904 52.958 238.901 48.5952 230.385ZM28.8937 223.011H43.3097V208.95H46.0371C46.0371 213.852 46.8398 218.583 48.3268 223.011H70.2679C56.1179 201.765 32.6283 187.292 5.69955 185.508C7.03444 206.002 15.62 224.937 30.2573 239.609C34.2942 243.656 38.667 247.241 43.3097 250.34V228.156C38.7948 226.593 33.9448 225.745 28.8937 225.745V223.011ZM95.5107 84.3702C137.58 81.5811 171.255 47.8249 174.038 5.65427C131.968 8.44331 98.293 42.1995 95.5107 84.3702ZM89.87 87.2905C90.7968 87.2905 91.7204 87.2758 92.6405 87.2467C92.6118 88.169 92.5974 89.095 92.5974 90.0244C92.5974 90.9538 92.6119 91.8798 92.6407 92.8022C91.7206 92.773 90.7969 92.7583 89.87 92.7583C88.9428 92.7583 88.0191 92.7729 87.099 92.8018C87.1281 91.8784 87.1427 90.9525 87.1427 90.0244C87.1427 89.0963 87.1281 88.1704 87.099 87.2469C88.0192 87.2759 88.943 87.2905 89.87 87.2905ZM95.5107 95.6787C98.293 137.849 131.968 171.606 174.038 174.395C171.255 132.224 137.58 98.4677 95.5107 95.6787ZM5.70193 5.65171C8.4831 47.8235 42.1589 81.581 84.2292 84.3702C82.8854 64.0145 74.3016 44.9311 59.6741 30.2685C45.0368 15.596 26.1468 6.98978 5.70193 5.65171ZM84.2292 95.6787C42.1588 98.4678 8.48308 132.225 5.70193 174.397C26.1468 173.059 45.0368 164.453 59.6741 149.78C74.3016 135.118 82.8854 116.034 84.2292 95.6787ZM266.716 447.149C267.637 447.178 268.56 447.193 269.487 447.193C270.414 447.193 271.338 447.178 272.258 447.149C272.229 448.072 272.214 448.998 272.214 449.927C272.214 450.924 272.231 451.917 272.264 452.905C271.276 452.872 270.286 452.856 269.292 452.856C268.429 452.856 267.568 452.869 266.71 452.894C266.743 451.909 266.76 450.92 266.76 449.927C266.76 448.997 266.745 448.072 266.716 447.149ZM269.487 444.459C270.458 444.459 271.424 444.442 272.387 444.41C275.12 400.736 310.068 365.551 353.792 362.808C353.823 361.908 353.839 361.005 353.841 360.098H353.646C353.646 359.055 353.627 358.017 353.59 356.983C310.182 354.152 275.226 319.264 272.399 275.598C271.368 275.56 270.332 275.541 269.292 275.541C268.384 275.541 267.478 275.556 266.576 275.584C263.747 319.388 228.587 354.361 184.994 357.007C184.959 357.968 184.941 358.934 184.939 359.902H185.134C185.134 360.875 185.15 361.844 185.183 362.809C228.751 365.548 263.852 400.58 266.588 444.41C267.551 444.442 268.517 444.459 269.487 444.459ZM272.264 272.857C271.278 272.824 270.287 272.807 269.292 272.807C268.429 272.807 267.568 272.82 266.71 272.845C266.743 271.86 266.76 270.871 266.76 269.878C266.76 268.949 266.745 268.023 266.716 267.1C267.637 267.129 268.56 267.144 269.487 267.144C270.414 267.144 271.338 267.129 272.258 267.1C272.229 268.023 272.214 268.949 272.214 269.878C272.214 270.875 272.231 271.868 272.264 272.857ZM275.142 275.742C275.358 278.901 275.748 282.014 276.302 285.069C293.691 287.6 307.797 299.722 313.515 315.769V288.092C302.213 281.099 289.145 276.705 275.142 275.742ZM353.446 354.234C315.628 351.633 284.632 324.004 276.835 287.763C297.8 291.386 313.32 309.644 313.32 331.196H316.047H316.242V289.853C337.275 304.014 351.61 327.412 353.446 354.234ZM356.19 354.378C353.376 310.704 318.568 275.812 274.998 272.991C274.961 271.958 274.942 270.92 274.942 269.878C274.942 268.905 274.958 267.936 274.991 266.971C318.546 264.232 353.487 229.2 356.376 185.371C357.345 185.338 358.319 185.321 359.296 185.321V182.587C358.365 182.587 357.438 182.602 356.514 182.631C356.547 181.709 356.565 180.783 356.569 179.853H356.373C356.371 178.989 356.357 178.126 356.331 177.265C357.315 177.298 358.303 177.315 359.296 177.315V174.581C358.261 174.581 357.23 174.562 356.204 174.525C354.899 153.334 346.094 133.438 330.853 118.34C318.512 105.969 303.249 97.8284 286.677 94.484C286.518 92.9545 286.436 91.4016 286.436 89.8291C286.436 88.3957 286.504 86.9785 286.636 85.5804C324.626 77.898 353.739 45.214 356.375 5.51772C357.344 5.48459 358.318 5.46788 359.296 5.46788V2.73395C358.365 2.73395 357.438 2.74864 356.514 2.77779C356.546 1.8553 356.565 0.929292 356.569 0H353.841C353.841 0.972575 353.825 1.94133 353.792 2.90601C325.302 4.69276 300.538 20.2537 285.984 42.9618H252.997C238.415 20.2183 213.6 4.69338 185.183 2.90651C185.15 1.94167 185.134 0.972742 185.134 0H182.406C182.406 0.929337 182.421 1.85527 182.45 2.77758C181.529 2.74857 180.606 2.73395 179.679 2.73395V5.46788C180.649 5.46788 181.615 5.48434 182.578 5.51698C185.065 45.3653 214.305 77.9418 252.339 85.5898C252.471 86.9848 252.538 88.3989 252.538 89.8291C252.538 91.381 252.458 92.914 252.302 94.4242C214.077 102.025 184.869 134.762 182.383 174.538C181.485 174.567 180.583 174.581 179.679 174.581V177.315C180.54 177.315 181.399 177.302 182.255 177.277C182.226 178.198 182.211 179.122 182.211 180.049H182.406C182.408 180.913 182.423 181.773 182.45 182.631C181.529 182.602 180.606 182.587 179.679 182.587V185.321C180.649 185.321 181.615 185.338 182.578 185.37C185.314 229.2 220.415 264.232 263.983 266.971C264.016 267.936 264.032 268.905 264.032 269.878C264.032 270.912 264.014 271.942 263.977 272.968C220.228 275.617 185.221 310.743 182.395 354.391C181.493 354.42 180.588 354.434 179.679 354.434V357.168C180.542 357.168 181.403 357.156 182.261 357.13C182.228 358.116 182.211 359.105 182.211 360.098H182.406C182.408 360.961 182.423 361.822 182.45 362.68C181.529 362.651 180.606 362.636 179.679 362.636V365.37C180.649 365.37 181.615 365.387 182.578 365.419C185.314 409.249 220.415 444.281 263.983 447.02C264.016 447.985 264.032 448.954 264.032 449.927C264.032 450.961 264.014 451.991 263.977 453.016C220.228 455.665 185.221 490.792 182.395 534.44C181.493 534.469 180.588 534.483 179.679 534.483V537.217C180.542 537.217 181.403 537.205 182.261 537.179C182.228 538.164 182.211 539.154 182.211 540.146H182.406C182.408 541.076 182.425 542.002 182.456 542.924C181.534 542.895 180.608 542.88 179.679 542.88V545.419C180.649 545.419 181.615 545.435 182.578 545.468C185.065 585.31 214.295 617.882 252.32 625.537C252.464 626.997 252.538 628.477 252.538 629.976C252.538 631.399 252.411 632.951 252.259 634.423C214.097 642.123 184.976 674.889 182.567 714.659C181.605 714.727 180.642 714.727 179.679 714.727V717.266H182.448C182.42 718.174 182.406 719.085 182.406 720H185.134C185.134 673.523 222.732 635.443 269.293 635.443C315.853 635.443 353.646 673.328 353.646 720H356.374C356.374 677.812 326.474 642.401 286.6 634.401C286.436 632.926 286.436 631.451 286.436 629.976C286.436 628.477 286.51 626.996 286.655 625.536C324.58 617.89 353.655 585.414 356.363 545.665C357.336 545.631 358.314 545.614 359.296 545.614V542.88C358.363 542.88 357.433 542.895 356.507 542.924C356.544 541.938 356.564 540.946 356.569 539.951H356.373C356.371 539.021 356.355 538.092 356.325 537.167C357.311 537.2 358.302 537.217 359.296 537.217V534.483C358.257 534.483 357.223 534.464 356.194 534.427C354.856 513.17 346.057 493.499 330.853 478.438C315.66 463.208 296.038 454.389 274.998 453.039C274.961 452.006 274.942 450.969 274.942 449.927C274.942 448.954 274.958 447.985 274.991 447.02C318.546 444.28 353.487 409.249 356.376 365.42C357.345 365.387 358.319 365.37 359.296 365.37V362.636C358.365 362.636 357.438 362.651 356.514 362.68C356.547 361.758 356.565 360.832 356.569 359.902H356.373C356.371 358.971 356.355 358.043 356.324 357.118C357.311 357.152 358.301 357.168 359.296 357.168V354.434C358.256 354.434 357.221 354.416 356.19 354.378ZM353.792 182.759C353.823 181.859 353.839 180.956 353.841 180.049H353.646C353.646 179.073 353.63 178.1 353.597 177.13C325.099 175.274 300.243 159.601 285.728 136.697H253.246C238.666 159.705 213.649 175.417 184.987 177.154C184.957 178.051 184.941 178.95 184.939 179.853H185.134C185.134 180.826 185.15 181.795 185.183 182.76C228.751 185.5 263.852 220.532 266.588 264.361C267.551 264.394 268.517 264.41 269.487 264.41C270.457 264.41 271.423 264.394 272.385 264.361C275.108 220.525 310.061 185.488 353.792 182.759ZM276.742 252.432C284.396 215.909 315.589 188.031 353.655 185.508C351.874 212.5 337.437 236.045 316.242 250.229V208.95H313.515C313.515 230.601 297.852 248.928 276.742 252.432ZM276.225 255.116C293.733 252.673 307.768 240.511 313.515 224.573V251.979C302.202 258.937 289.13 263.295 275.128 264.224C275.331 261.14 275.7 258.101 276.225 255.116ZM263.847 264.224C263.643 261.14 263.274 258.101 262.749 255.116C245.235 252.673 231.015 240.508 225.459 224.378V251.979C236.772 258.937 249.844 263.295 263.847 264.224ZM185.319 185.508C223.385 188.031 254.579 215.909 262.232 252.432C241.122 248.928 225.459 230.601 225.459 208.95H222.732V250.228C201.538 236.045 187.1 212.5 185.319 185.508ZM225.459 287.853C236.777 280.935 249.844 276.613 263.834 275.716C263.624 278.806 263.247 281.85 262.714 284.84C245.216 287.302 231.011 299.646 225.459 315.574V287.853ZM222.732 289.593C201.48 303.73 186.976 327.262 185.137 354.26C223.209 351.818 254.441 324.017 262.186 287.543C241.099 291.246 225.459 309.561 225.459 331.196H222.732V289.593ZM353.785 543.053C353.82 542.088 353.839 541.119 353.841 540.146H353.646C353.646 539.105 353.628 538.067 353.591 537.032C310.182 534.202 275.226 499.314 272.399 455.646C271.366 455.609 270.331 455.59 269.292 455.59C268.384 455.59 267.478 455.604 266.576 455.633C263.747 499.437 228.587 534.41 184.994 537.056C184.959 538.017 184.941 538.982 184.939 539.951H185.134C185.134 540.99 185.152 542.024 185.189 543.053C213.604 544.842 238.416 560.367 252.997 583.108H285.984C300.537 560.402 325.298 544.842 353.785 543.053ZM289.22 583.108C303.381 561.973 326.802 547.585 353.642 545.802C351.804 572.712 337.385 596.177 316.242 610.326V588.187C320.702 586.667 325.485 585.842 330.463 585.842V583.108H316.242V569.048H313.515C313.515 573.95 312.712 578.681 311.225 583.108H289.22ZM310.284 585.647H287.584C282.539 593.789 278.836 602.851 276.785 612.523C281.112 611.8 285.211 610.454 288.992 608.584C293.428 599.892 300.498 592.753 309.132 588.241C309.543 587.391 309.928 586.526 310.284 585.647ZM306.507 592.922C301.28 596.32 296.82 600.801 293.442 606.049C298.684 602.643 303.137 598.157 306.507 592.922ZM290.901 610.558C299.565 606.088 306.588 598.968 311.04 590.344C311.851 589.945 312.676 589.569 313.515 589.22V612.077C305.477 617.02 296.55 620.652 287.033 622.673C287.741 618.394 289.062 614.324 290.901 610.558ZM287.333 612.209C283.848 613.643 280.139 614.664 276.26 615.209C275.728 618.195 275.352 621.235 275.141 624.32C278.266 624.113 281.344 623.734 284.367 623.194C284.909 619.367 285.918 615.685 287.333 612.209ZM313.515 586.233C313.277 586.327 313.039 586.424 312.803 586.522C312.922 586.232 313.038 585.94 313.151 585.647H313.515V586.233ZM284.418 585.647H254.564C261.393 597.142 265.663 610.342 266.576 624.458C267.542 624.491 268.513 624.508 269.487 624.508C270.462 624.508 271.433 624.491 272.399 624.458C273.313 610.363 277.582 597.157 284.418 585.647ZM272.264 627.198C271.342 627.227 270.416 627.242 269.487 627.242C268.558 627.242 267.632 627.227 266.71 627.198C266.743 628.185 266.76 629.176 266.76 630.171C266.637 631.033 266.592 631.895 266.575 632.758C267.542 632.726 268.513 632.71 269.487 632.71C270.435 632.71 271.38 632.725 272.32 632.755L272.312 632.612C272.263 631.782 272.214 630.952 272.214 630.171C272.214 629.176 272.231 628.185 272.264 627.198ZM274.98 632.881C274.942 631.978 274.942 631.074 274.942 630.171C274.942 629.132 274.961 628.098 274.998 627.069C278.062 626.876 281.083 626.523 284.053 626.019C283.954 627.26 283.903 628.514 283.903 629.78C283.903 631.195 283.903 632.609 284.005 633.922C281.045 633.422 278.034 633.072 274.98 632.881ZM185.319 545.605C187.1 572.598 201.538 596.143 222.732 610.326V588.187C218.273 586.667 213.489 585.842 208.511 585.842V583.108H222.732V569.048H225.459C225.459 573.95 226.262 578.681 227.749 583.108H249.885C235.736 561.863 212.247 547.391 185.319 545.605ZM225.459 589.22V612.077C233.498 617.02 242.424 620.652 251.941 622.673C251.234 618.401 249.917 614.338 248.082 610.577C239.406 606.122 232.354 599.014 227.951 590.352C227.135 589.95 226.304 589.572 225.459 589.22ZM232.467 592.922C235.837 598.157 240.29 602.643 245.532 606.049C242.154 600.801 237.694 596.32 232.467 592.922ZM229.777 588.107C238.571 592.632 245.766 599.874 250.242 608.712C253.963 610.521 257.988 611.825 262.232 612.53C260.206 602.859 256.529 593.795 251.511 585.647H228.69C229.028 586.479 229.391 587.3 229.777 588.107ZM254.808 623.23C254.271 619.428 253.275 615.769 251.879 612.313C255.311 613.698 258.953 614.684 262.749 615.214C263.274 618.199 263.643 621.237 263.847 624.321C260.786 624.118 257.77 623.752 254.808 623.23ZM225.881 585.647H225.459V586.156C225.704 586.252 225.948 586.35 226.19 586.45C226.085 586.183 225.982 585.916 225.881 585.647ZM263.983 627.069C260.986 626.881 258.028 626.539 255.118 626.053C255.216 627.283 255.266 628.526 255.266 629.78C255.204 630.465 255.161 631.13 255.12 631.782L255.12 631.783C255.074 632.51 255.028 633.22 254.958 633.923C257.884 633.429 260.86 633.081 263.877 632.888L263.881 632.82L263.887 632.723L263.893 632.639C263.902 632.495 263.912 632.352 263.922 632.208L263.935 632.026C263.984 631.343 264.032 630.659 264.032 629.976C264.032 629.003 264.016 628.034 263.983 627.069ZM353.655 365.557C350.873 407.727 317.197 441.484 275.128 444.273C277.91 402.102 311.586 368.346 353.655 365.557ZM353.449 534.283C311.545 531.402 278.017 497.795 275.142 455.791C295.37 457.183 314.328 465.778 328.905 480.391C343.492 495.013 352.069 513.869 353.449 534.283ZM185.137 534.309C188.009 492.163 221.741 458.464 263.834 455.764C260.962 497.91 227.23 531.609 185.137 534.309ZM263.847 444.272C261.064 402.102 227.389 368.346 185.319 365.557C188.102 407.727 221.777 441.483 263.847 444.272ZM107.416 637.278C143.782 645.001 171.524 676.238 174.038 714.346C147.11 712.56 123.622 698.088 109.472 676.843H150.846V674.109C128.977 674.109 110.879 658.202 107.416 637.278ZM135.261 674.109H107.726C100.785 662.769 96.4367 649.666 95.5107 635.63C98.5808 635.833 101.606 636.202 104.578 636.726C107.101 654.067 119.188 668.392 135.261 674.109ZM89.87 632.71C90.797 632.71 91.7207 632.724 92.6407 632.753C92.6119 631.831 92.5974 630.905 92.5974 629.976C92.5974 629.047 92.6116 628.122 92.6401 627.198C91.7202 627.227 90.7967 627.242 89.87 627.242C88.9409 627.242 88.0152 627.227 87.093 627.198C87.126 628.185 87.1427 629.176 87.1427 630.171C87.1427 631.034 87.13 631.895 87.1049 632.753C88.0231 632.724 88.9448 632.71 89.87 632.71ZM95.3247 629.976C95.3247 630.948 95.3411 631.917 95.3737 632.882C98.378 633.07 101.341 633.412 104.255 633.899C104.147 632.605 104.091 631.296 104.091 629.976C104.091 628.658 104.146 627.348 104.253 626.05C101.338 626.538 98.3762 626.88 95.3738 627.069C95.3411 628.036 95.3247 629.004 95.3247 629.976ZM104.572 623.226C101.602 623.75 98.5787 624.118 95.5108 624.321C96.417 610.594 100.616 597.446 107.74 585.842H135.067C128.638 588.185 122.793 591.896 117.728 596.973C110.561 604.157 105.998 613.3 104.572 623.226ZM104.512 585.842C97.6263 597.558 93.6139 610.708 92.7667 624.459C91.8051 624.491 90.8394 624.508 89.87 624.508C88.8956 624.508 87.925 624.491 86.9586 624.458C86.0511 610.421 81.8236 597.292 75.0626 585.842H104.512ZM150.846 583.108H109.491C112.553 578.527 116.086 574.21 120.066 570.22C134.703 555.547 153.593 546.941 174.038 545.603C171.524 583.719 143.773 614.961 107.396 622.677C108.853 613.62 113.043 605.38 119.676 598.731C128.053 590.334 139.158 585.842 150.846 585.842V583.108ZM104.562 674.109C97.8372 662.652 93.6448 649.523 92.769 635.492C91.8066 635.46 90.8402 635.443 89.87 635.443C88.9034 635.443 87.9405 635.46 86.9818 635.492C86.1315 649.511 81.9448 662.644 75.2116 674.109H104.562ZM71.8942 585.842C78.8725 597.174 83.2572 610.278 84.2162 624.32C81.0817 624.112 77.9937 623.732 74.9617 623.189C72.4276 605.864 60.3463 591.555 44.2839 585.842H71.8942ZM70.1374 583.108H28.8937V585.842C50.7631 585.842 68.8615 601.75 72.3239 622.673C36.0202 614.963 8.31164 583.82 5.71526 545.802C32.5548 547.585 55.9765 561.973 70.1374 583.108ZM84.3595 627.069C81.2907 626.876 78.2639 626.522 75.2875 626.017C75.3977 627.322 75.4539 628.643 75.4539 629.976C75.4539 631.308 75.3986 632.627 75.2901 633.931C78.2688 633.427 81.2991 633.074 84.3727 632.881C84.401 631.981 84.4153 631.078 84.4153 630.171C84.4153 629.132 84.3966 628.098 84.3595 627.069ZM84.2421 635.629C81.101 635.837 78.0067 636.217 74.9686 636.761C72.4674 654.086 60.5195 668.396 44.2839 674.109H72.1333C79.037 662.761 83.3489 649.658 84.2421 635.629ZM70.3976 676.843H28.8937V674.109C50.7631 674.109 68.8615 658.202 72.3239 637.278C35.8954 645.014 8.12126 676.345 5.68938 714.542C32.7048 712.755 56.2599 698.198 70.3976 676.843ZM353.462 174.382C326.533 172.535 303.061 157.997 288.96 136.697H330.463V133.963C308.68 133.963 290.638 118.18 287.075 97.3773C302.762 100.755 317.236 108.596 328.905 120.293C343.539 134.962 352.124 153.893 353.462 174.382ZM287.343 134.158H314.878C298.816 128.445 286.735 114.136 284.201 96.8109C281.213 96.2762 278.185 95.9019 275.129 95.692C276.057 109.723 280.404 122.822 287.343 134.158ZM284.18 134.158C277.455 122.703 273.263 109.576 272.387 95.5483C271.358 95.511 270.326 95.4923 269.292 95.4923C268.388 95.4923 267.486 95.5066 266.589 95.535C265.714 109.568 261.521 122.699 254.795 134.158H284.18ZM272.258 92.8075C271.272 92.7748 270.284 92.7583 269.292 92.7583C268.431 92.7583 267.572 92.7709 266.717 92.7959C266.745 91.8756 266.76 90.9517 266.76 90.0244C266.76 89.0951 266.745 88.1692 266.716 87.2469C267.637 87.2759 268.56 87.2905 269.487 87.2905C270.414 87.2905 271.338 87.2758 272.258 87.2466C272.229 88.1691 272.214 89.0951 272.214 90.0244C272.214 90.9556 272.229 91.8834 272.258 92.8075ZM274.991 92.9404C277.984 93.1323 280.947 93.4753 283.873 93.9662C283.764 92.6663 283.708 91.3516 283.708 90.0244C283.708 88.7005 283.764 87.3891 283.873 86.0923C280.958 86.583 277.995 86.9272 274.991 87.1171C274.958 88.0822 274.942 89.0514 274.942 90.0244C274.942 91.0004 274.958 91.9724 274.991 92.9404ZM275.128 84.3702C278.198 84.1666 281.223 83.7982 284.195 83.2736C286.718 65.9326 298.805 51.6082 314.878 45.891H287.343C280.402 57.2309 276.054 70.3345 275.128 84.3702ZM272.387 84.5075C273.263 70.4984 277.455 57.3627 284.187 45.891H254.795C261.52 57.3478 265.712 70.4769 266.588 84.5075C267.551 84.5401 268.517 84.5565 269.487 84.5565C270.458 84.5565 271.424 84.5401 272.387 84.5075ZM289.22 42.9618H330.463V45.6957C308.524 45.6957 290.379 61.7057 287 82.729C323.383 75.0177 351.14 43.7736 353.655 5.65425C326.81 7.4339 303.383 21.823 289.22 42.9618ZM223.901 45.891H251.631C258.572 57.2309 262.92 70.3345 263.847 84.3702C260.707 84.162 257.615 83.7815 254.579 83.2379C252.045 65.913 239.963 51.6042 223.901 45.891ZM208.511 42.9618H249.755C235.591 21.8231 212.164 7.43403 185.319 5.65428C187.835 43.7735 215.592 75.0175 251.974 82.7289C248.595 61.7057 230.451 45.6957 208.511 45.6957V42.9618ZM254.905 86.0654C257.883 86.5712 260.912 86.9248 263.983 87.1179C264.016 88.0828 264.032 89.0517 264.032 90.0244C264.032 90.9929 264.016 91.9577 263.984 92.9184C260.913 93.1041 257.885 93.4499 254.908 93.9474C255.016 92.6536 255.071 91.3452 255.071 90.0244C255.071 88.6914 255.015 87.371 254.905 86.0654ZM254.584 96.7753C257.619 96.2395 260.71 95.8666 263.847 95.6659C262.923 109.706 258.574 122.814 251.631 134.158H223.901C239.974 128.441 252.061 114.116 254.584 96.7753ZM208.511 136.697H250.015C235.845 158.1 212.216 172.674 185.124 174.407C187.636 136.237 215.459 104.958 251.908 97.2926C248.349 118.137 230.15 133.963 208.511 133.963V136.697Z" fill="url(#paint0_linear)" fill-opacity="0.5"></path> <defs> <linearGradient id="paint0_linear" x1="172.062" y1="467" x2="327.562" y2="-64" gradientUnits="userSpaceOnUse"> <stop stop-color="#CCEAED"></stop> <stop offset="1" stop-color="#CCEAED" stop-opacity="0"></stop> </linearGradient> </defs> </svg> 