<?xml version="1.0" encoding="UTF-8"?> <svg xmlns="http://www.w3.org/2000/svg" width="360" height="720" viewBox="0 0 360 720" fill="none"> <path opacity="0.2" fill-rule="evenodd" clip-rule="evenodd" d="M2.83264 717.223C2.8038 718.145 2.78927 719.071 2.78927 720L5.51665 720C5.51665 719.028 5.53303 718.06 5.56554 717.096C26.6821 715.789 46.3807 706.963 61.6227 691.684C76.6854 676.406 85.6411 656.66 86.9704 635.493C87.9331 635.46 88.8999 635.443 89.8704 635.443C90.8404 635.443 91.8066 635.46 92.7687 635.493C95.4918 679.329 130.444 714.365 174.175 717.095C174.208 718.059 174.224 719.028 174.224 720L176.952 720C176.952 719.071 176.937 718.145 176.908 717.223C177.828 717.252 178.752 717.266 179.679 717.266L179.679 714.532C178.708 714.532 177.741 714.516 176.779 714.483C174.033 670.817 138.936 635.635 95.3742 632.883C95.3416 631.918 95.3252 630.949 95.3252 629.976C95.3252 629.003 95.3416 628.033 95.3742 627.068C138.936 624.316 174.033 589.135 176.779 545.468C177.741 545.435 178.708 545.419 179.679 545.419L179.679 542.685C178.752 542.685 177.828 542.7 176.908 542.729C176.935 541.871 176.949 541.01 176.951 540.146L176.952 540.146L176.952 540.048L176.952 539.951L176.951 539.951C176.95 539.089 176.935 538.228 176.909 537.369C177.829 537.398 178.752 537.413 179.679 537.413L179.679 534.679C178.71 534.679 177.744 534.662 176.782 534.63C175.478 513.462 166.673 493.716 151.431 478.438C139.035 466.012 123.692 457.854 107.036 454.538C106.893 453.086 106.819 451.613 106.819 450.122C106.819 448.553 106.901 447.003 107.059 445.476C145.004 437.795 174.187 405.212 176.766 365.615C177.733 365.582 178.704 365.566 179.679 365.566L179.679 362.832C178.75 362.832 177.824 362.846 176.901 362.875C176.933 361.953 176.95 361.027 176.952 360.098L176.952 360L176.952 359.902C176.95 359.039 176.935 358.178 176.908 357.32C177.828 357.349 178.752 357.364 179.679 357.364L179.679 354.63C178.709 354.63 177.742 354.613 176.78 354.581C174.044 310.751 138.943 275.719 95.3742 272.98C95.3416 272.015 95.3252 271.046 95.3252 270.073C95.3252 269.035 95.3439 268.001 95.3809 266.972C139.044 264.244 173.954 229.309 176.769 185.566C177.735 185.533 178.705 185.517 179.679 185.517L179.679 182.783C178.75 182.783 177.824 182.797 176.902 182.827C176.933 181.904 176.95 180.978 176.952 180.049L176.952 179.951L176.952 179.854C176.95 178.99 176.935 178.129 176.908 177.272C177.829 177.3 178.753 177.315 179.679 177.315L179.679 174.581C178.71 174.581 177.743 174.565 176.78 174.533C174.293 134.688 145.058 102.113 107.03 94.4612C106.89 92.9997 106.819 91.5198 106.819 90.0244C106.819 88.5273 106.893 87.0478 107.038 85.5893C145.173 77.9234 174.294 45.2291 176.779 5.51701C177.742 5.48436 178.709 5.46788 179.679 5.46788L179.679 2.73393C178.752 2.73393 177.828 2.74858 176.908 2.77757C176.937 1.85515 176.952 0.929184 176.952 -1.54642e-05L174.224 -1.52257e-05C174.224 0.972702 174.208 1.94164 174.175 2.90648C145.676 4.69841 120.8 20.3071 106.236 43.157L73.5382 43.157C58.9781 20.3276 34.086 4.69958 5.56557 2.90649C5.533 1.94165 5.51658 0.972717 5.51658 -4.7686e-07L2.78921 -2.38425e-07C2.78921 0.929199 2.80379 1.85516 2.83273 2.77759C1.91256 2.7486 0.988895 2.73395 0.061949 2.73395L0.0619492 5.27258C1.02827 5.27258 1.99081 5.28894 2.94932 5.32129C5.35079 45.1217 34.5051 77.9109 72.7032 85.5893C72.8478 87.0478 72.9218 88.5273 72.9218 90.0244C72.9218 91.5227 72.8477 93.0033 72.7029 94.4628C34.7409 102.105 5.54346 134.583 2.97332 174.336C2.00689 174.369 1.03635 174.386 0.061964 174.386L0.0619643 177.12C0.990994 177.12 1.91673 177.105 2.83895 177.076C2.80805 177.998 2.79148 178.924 2.78944 179.854L2.78923 179.854L2.78928 179.951L2.78923 180.049L2.78944 180.049C2.79148 180.978 2.8081 181.904 2.83909 182.826C1.91682 182.797 0.991041 182.783 0.0619648 182.783L0.061965 185.517C1.03652 185.517 2.00722 185.533 2.97383 185.566C5.7986 229.147 40.7041 264.23 84.36 266.972C84.3971 268.001 84.4158 269.035 84.4158 270.073C84.4158 271.046 84.3993 272.015 84.3668 272.98C40.8628 275.715 5.801 310.647 2.97332 354.385C2.00689 354.418 1.03636 354.435 0.0619798 354.435L0.06198 357.168C0.991009 357.168 1.91674 357.154 2.83896 357.125C2.80807 358.047 2.79149 358.973 2.78946 359.902L2.78924 359.902L2.78929 360L2.78924 360.098L2.78945 360.098C2.79146 361.026 2.80777 361.952 2.83829 362.875C1.91629 362.846 0.990783 362.832 0.0619805 362.832L0.0619807 365.566C1.03554 365.566 2.00527 365.582 2.9709 365.615C4.31714 386.708 13.1146 406.379 28.3097 421.611C40.5609 433.892 55.9786 442.123 72.6827 445.484C72.8408 447.008 72.9218 448.556 72.9218 450.122C72.9218 451.613 72.8484 453.086 72.7051 454.538C56.0487 457.854 40.7055 466.012 28.3097 478.438C13.2369 493.547 4.27933 513.295 2.95938 534.63C1.99756 534.662 1.03168 534.679 0.0619955 534.679L0.0619958 537.413C0.988766 537.413 1.91226 537.398 2.83225 537.369C2.80564 538.227 2.79134 539.088 2.78947 539.951L2.78926 539.951L2.78931 540.049L2.78926 540.147L2.78947 540.147C2.79137 541.01 2.80586 541.871 2.83278 542.729C1.91153 542.7 0.987849 542.685 0.0619962 542.685L0.0619965 545.419C1.03141 545.419 1.99795 545.435 2.96135 545.467C5.69394 589.141 40.6422 624.327 84.3668 627.07C84.3994 628.036 84.4158 629.005 84.4158 629.976C84.4158 630.947 84.3994 631.916 84.3667 632.882C40.7978 635.622 5.69627 670.654 2.96089 714.484C1.99765 714.516 1.03126 714.532 0.0620112 714.532L0.0620115 717.266C0.987812 717.266 1.91144 717.252 2.83264 717.223ZM95.5243 264.223C109.521 263.293 122.589 258.934 133.898 251.979L133.898 224.378C128.177 240.435 114.055 252.563 96.6489 255.083C96.1135 258.078 95.7357 261.128 95.5243 264.223ZM136.431 208.755L136.431 250.358C157.68 236.223 172.182 212.697 174.025 185.704C136.118 188.223 105.029 215.885 97.2187 252.188C118.183 248.565 133.703 230.307 133.703 208.755L136.431 208.755ZM92.7819 264.361C95.6096 220.625 130.668 185.694 174.168 182.956C174.204 181.958 174.223 180.957 174.224 179.951C174.223 179.012 174.207 178.076 174.175 177.144C152.892 175.821 133.191 166.842 118.118 151.733C113.555 147.159 109.569 142.185 106.189 136.892L73.3802 136.892C58.7996 159.633 33.9871 175.158 5.57242 176.947C5.53648 177.944 5.5178 178.945 5.51666 179.951C5.51779 180.956 5.53647 181.958 5.5724 182.955C49.1377 185.684 84.2354 220.548 86.9714 264.361C87.9338 264.394 88.9002 264.41 89.8704 264.41C90.8448 264.41 91.8154 264.393 92.7819 264.361ZM92.6475 267.101C92.6145 268.087 92.5978 269.078 92.5978 270.073C92.5978 271.003 92.6123 271.928 92.641 272.851C91.7209 272.822 90.7973 272.807 89.8704 272.807C88.9414 272.807 88.0156 272.822 87.0934 272.851C87.1265 271.864 87.1431 270.873 87.1431 269.878C87.1431 268.949 87.1286 268.023 87.0997 267.101C88.0198 267.129 88.9434 267.144 89.8704 267.144C90.7996 267.144 91.7254 267.129 92.6475 267.101ZM133.703 287.853C122.435 280.965 109.433 276.65 95.5111 275.727C95.7146 278.811 96.0833 281.85 96.6083 284.835C114.116 287.279 128.148 299.44 133.703 315.378L133.703 287.853ZM136.43 289.592L136.43 331.001L133.898 331.001C133.898 309.35 118.236 291.024 97.1254 287.519C104.779 324.043 135.972 351.92 174.038 354.443C172.252 327.368 157.731 303.762 136.43 289.592ZM174.175 357.192C130.444 354.463 95.4918 319.427 92.7686 275.59C91.8065 275.558 90.8404 275.541 89.8704 275.541C88.896 275.541 87.9255 275.558 86.959 275.591C84.1314 319.326 49.0731 354.257 5.57243 356.995C5.53649 357.993 5.51781 358.994 5.51667 360C5.51781 361.004 5.53647 362.006 5.57251 363.005C34.0685 364.799 58.9416 380.407 73.5052 403.255L106.236 403.255C120.799 380.407 145.672 364.799 174.168 363.005C174.204 362.007 174.223 361.006 174.224 360C174.223 359.061 174.207 358.125 174.175 357.192ZM5.71565 354.248C7.55876 327.255 22.0607 303.728 43.3102 289.593L43.3102 331.196L46.0375 331.196C46.0375 309.63 61.5781 291.362 82.5636 287.756C74.8227 324.118 43.6902 351.737 5.71565 354.248ZM84.2298 275.727C70.308 276.65 57.3055 280.965 46.0375 287.853L46.0375 315.574C51.5717 299.505 65.7048 287.372 83.1265 284.864C83.6548 281.87 84.0255 278.822 84.2298 275.727ZM43.1157 250.229C21.9726 236.08 7.55361 212.614 5.71573 185.704C43.6996 188.228 74.838 215.997 82.5693 252.408C61.4826 248.705 45.843 230.39 45.843 208.755L43.1157 208.755L43.1157 250.229ZM45.843 251.979L45.843 224.378C51.3947 240.305 65.5996 252.649 83.0971 255.111C83.6298 258.097 84.0059 261.137 84.2167 264.223C70.2197 263.293 57.1522 258.935 45.843 251.979ZM109.473 403.255C123.62 382.013 147.103 367.542 174.025 365.753C172.182 392.745 157.68 416.272 136.431 430.407L136.431 408.4C140.946 406.837 145.796 405.989 150.847 405.989L150.847 403.255L136.431 403.255L136.431 388.804L133.703 388.804C133.703 393.85 132.853 398.715 131.28 403.255L109.473 403.255ZM107.451 442.617C116.955 440.594 125.87 436.966 133.898 432.028L133.898 409.366C132.928 409.771 131.975 410.21 131.041 410.681C126.633 418.912 119.864 425.695 111.605 430.063C109.628 433.948 108.208 438.168 107.451 442.617ZM132.945 406.688C133.261 406.556 133.579 406.428 133.898 406.303L133.898 405.793L133.31 405.793C133.191 406.093 133.069 406.392 132.945 406.688ZM129.062 408.524C129.508 407.63 129.926 406.72 130.312 405.793L107.846 405.793C102.905 413.818 99.2637 422.731 97.2187 432.237C101.56 431.487 105.668 430.109 109.453 428.204C113.858 419.836 120.72 412.95 129.062 408.524ZM107.712 431.895C104.234 433.337 100.54 434.37 96.685 434.931C96.1305 437.99 95.7404 441.107 95.5243 444.272C98.59 444.068 101.611 443.7 104.579 443.176C105.152 439.238 106.218 435.456 107.712 431.895ZM114.441 425.266C117.555 420.686 121.508 416.726 126.08 413.608C122.972 418.178 119.024 422.141 114.441 425.266ZM92.7819 444.409C93.6895 430.373 97.9169 417.243 104.678 405.793L75.0632 405.793C81.8242 417.243 86.0517 430.373 86.9591 444.41C87.9265 444.443 88.897 444.459 89.8704 444.459C90.8448 444.459 91.8154 444.442 92.7819 444.409ZM95.381 447.019C98.3821 446.829 101.343 446.485 104.256 445.996C104.147 447.292 104.092 448.603 104.092 449.927C104.092 451.31 104.152 452.68 104.271 454.034C101.34 453.548 98.3712 453.211 95.3741 453.026C95.3416 452.062 95.3252 451.094 95.3252 450.122C95.3252 449.083 95.3439 448.049 95.381 447.019ZM92.641 452.899C92.6123 451.977 92.5978 451.051 92.5978 450.122C92.5978 449.127 92.6145 448.136 92.6476 447.149C91.7253 447.178 90.7995 447.193 89.8704 447.193C88.9428 447.193 88.017 447.178 87.0934 447.149C87.1265 448.136 87.1432 449.127 87.1432 450.122C87.1432 451.051 87.1286 451.977 87.0998 452.899C88.021 452.87 88.9446 452.856 89.8704 452.856C90.7962 452.856 91.7198 452.87 92.641 452.899ZM95.5111 455.777C98.5761 455.98 101.612 456.348 104.608 456.878C105.183 460.713 106.226 464.398 107.676 467.873C104.193 466.443 100.486 465.425 96.6084 464.884C96.0833 461.899 95.7146 458.86 95.5111 455.777ZM97.1254 467.568C99.1196 477.084 102.712 486.013 107.607 494.06L130.507 494.06C130.14 493.182 129.746 492.317 129.325 491.468C120.821 487.025 113.833 480.033 109.384 471.518C105.589 469.64 101.472 468.29 97.1254 467.568ZM113.826 474.049C117.204 479.297 121.663 483.777 126.89 487.176C123.52 481.941 119.067 477.455 113.826 474.049ZM111.287 469.544C119.907 473.999 126.878 481.084 131.246 489.666C132.051 490.067 132.871 490.444 133.703 490.796L133.703 467.915C125.584 462.937 116.711 459.398 107.417 457.424C108.125 461.705 109.446 465.776 111.287 469.544ZM136.43 469.66C141.073 472.759 145.446 476.344 149.483 480.391C164.11 495.053 172.694 514.137 174.038 534.492C147.111 532.707 123.622 518.235 109.473 496.989L131.608 496.989C133.095 501.417 133.898 506.148 133.898 511.05L136.43 511.05L136.43 496.989L150.847 496.989L150.847 494.255C145.796 494.255 140.946 493.407 136.43 491.844L136.43 469.66ZM133.703 493.474C133.41 493.358 133.118 493.238 132.828 493.116C132.956 493.429 133.081 493.744 133.202 494.06L133.703 494.06L133.703 493.474ZM104.405 494.06C97.7662 482.65 93.6353 469.59 92.7687 455.639C91.805 455.606 90.8388 455.59 89.8704 455.59C88.9018 455.59 87.9354 455.606 86.9715 455.639C86.1007 469.59 81.9508 482.65 75.2924 494.06L104.405 494.06ZM174.175 537.241C145.568 535.456 120.717 519.845 106.188 496.989L73.5052 496.989C58.9404 519.84 34.0641 535.448 5.56491 537.24C5.53385 538.173 5.51773 539.11 5.51669 540.048C5.51774 540.989 5.53414 541.925 5.56564 542.858C26.6821 544.191 46.3807 553.168 61.6227 568.267C76.6854 583.546 85.6411 603.291 86.9704 624.459C87.9331 624.491 88.8999 624.508 89.8704 624.508C90.8407 624.508 91.8071 624.491 92.7695 624.459C95.5052 580.629 130.607 545.597 174.175 542.858C174.207 541.925 174.223 540.989 174.224 540.049C174.223 539.111 174.207 538.175 174.175 537.241ZM83.0971 435.16C83.63 438.147 84.0062 441.188 84.2168 444.274C81.0955 444.069 78.0104 443.695 74.9711 443.156C74.4168 439.308 73.3964 435.608 71.9666 432.119C75.4744 433.575 79.2043 434.612 83.0971 435.16ZM82.5693 432.457C80.5334 422.869 76.8744 413.88 71.8947 405.793L49.2327 405.793C49.6129 406.706 50.023 407.603 50.4616 408.484C58.9457 412.936 65.8445 419.897 70.2277 428.361C74.0458 430.289 78.1901 431.688 82.5693 432.457ZM65.5385 425.62C62.305 420.765 58.1359 416.591 53.2877 413.356C56.5185 418.191 60.6818 422.367 65.5385 425.62ZM68.3102 430.408C59.8192 425.971 52.8964 418.985 48.5096 410.586C47.6369 410.151 46.7476 409.744 45.8431 409.366L45.8431 432.037C53.9929 437.076 62.9066 440.652 72.2935 442.636C71.5592 438.311 70.1993 434.203 68.3102 430.408ZM43.1157 430.277L43.1157 408.333C38.6561 406.813 33.8728 405.989 28.8942 405.989L28.8942 403.255L43.1157 403.255L43.1157 388.804L45.8431 388.804C45.8431 393.849 46.6935 398.714 48.2653 403.255L70.2684 403.255C56.1212 382.013 32.638 367.542 5.71591 365.753C7.10175 386.035 15.6774 405.043 30.2578 419.658C34.2462 423.656 38.5504 427.204 43.1157 430.277ZM46.3441 405.793C46.4642 406.106 46.5877 406.416 46.7145 406.726C46.4255 406.605 46.135 406.488 45.8431 406.373L45.8431 405.793L46.3441 405.793ZM84.4158 450.122C84.4158 451.094 84.3994 452.062 84.3669 453.026C81.3024 453.216 78.2678 453.564 75.2723 454.067C75.3928 452.702 75.4544 451.321 75.4544 449.927C75.4544 448.594 75.399 447.273 75.2903 445.968C78.2795 446.475 81.3062 446.827 84.3599 447.019C84.3971 448.049 84.4158 449.083 84.4158 450.122ZM84.2298 455.777C84.0257 458.87 83.6554 461.918 83.1276 464.912C79.1575 465.484 75.3582 466.555 71.7925 468.059C73.2784 464.54 74.3461 460.804 74.9324 456.914C77.9936 456.365 81.0966 455.984 84.2298 455.777ZM72.1338 494.06C77.0234 486.023 80.6128 477.105 82.6084 467.602C78.133 468.366 73.9048 469.797 70.0215 471.785C65.661 480.002 58.9274 486.781 50.7508 491.187C50.2769 492.126 49.8358 493.085 49.4287 494.06L72.1338 494.06ZM65.7716 474.271C62.4849 479.31 58.1972 483.631 53.1895 486.953C56.4684 481.926 60.7503 477.6 65.7716 474.271ZM46.6074 494.06C46.747 493.698 46.891 493.338 47.0394 492.98C46.7074 493.122 46.3734 493.261 46.0375 493.396L46.0375 494.06L46.6074 494.06ZM48.5957 489.615C47.7579 490.035 46.9049 490.429 46.0375 490.796L46.0375 467.915C54.1572 462.937 63.0298 459.398 72.3244 457.424C71.609 461.748 70.2687 465.857 68.3994 469.656C59.8863 474.096 52.9585 481.099 48.5957 489.615ZM28.8942 496.989L43.3102 496.989L43.3102 511.05L46.0375 511.05C46.0375 506.148 46.8403 501.417 48.3273 496.989L70.2684 496.989C56.1184 518.235 32.6288 532.708 5.70003 534.492C7.03491 513.998 15.6205 495.063 30.2578 480.391C34.2947 476.344 38.6675 472.759 43.3102 469.66L43.3102 491.844C38.7953 493.407 33.9453 494.255 28.8942 494.255L28.8942 496.989ZM95.5111 635.63C137.581 638.419 171.256 672.175 174.038 714.346C131.969 711.557 98.2935 677.8 95.5111 635.63ZM89.8704 632.71C90.7973 632.71 91.7209 632.724 92.641 632.753C92.6123 631.831 92.5978 630.905 92.5978 629.976C92.5978 629.046 92.6124 628.12 92.6412 627.198C91.7211 627.227 90.7974 627.242 89.8704 627.242C88.9433 627.242 88.0196 627.227 87.0995 627.198C87.1286 628.122 87.1432 629.048 87.1432 629.976C87.1432 630.904 87.1286 631.83 87.0995 632.753C88.0197 632.724 88.9434 632.71 89.8704 632.71ZM95.5111 624.321C98.2935 582.151 131.969 548.394 174.038 545.605C171.256 587.776 137.581 621.532 95.5111 624.321ZM5.70242 714.348C8.48358 672.176 42.1593 638.419 84.2297 635.63C82.8859 655.986 74.302 675.069 59.6746 689.731C45.0373 704.404 26.1473 713.01 5.70242 714.348ZM84.2297 624.321C42.1593 621.532 8.48356 587.775 5.7024 545.603C26.1473 546.941 45.0372 555.547 59.6746 570.22C74.302 584.882 82.8859 603.966 84.2297 624.321ZM266.717 272.851C267.637 272.822 268.561 272.807 269.488 272.807C270.415 272.807 271.338 272.822 272.258 272.851C272.23 271.928 272.215 271.002 272.215 270.073C272.215 269.076 272.232 268.083 272.265 267.095C271.277 267.127 270.286 267.144 269.293 267.144C268.429 267.144 267.568 267.131 266.711 267.106C266.744 268.091 266.76 269.08 266.76 270.073C266.76 271.003 266.746 271.928 266.717 272.851ZM269.488 275.541C270.458 275.541 271.425 275.558 272.387 275.59C275.12 319.264 310.068 354.449 353.793 357.192C353.823 358.092 353.839 358.995 353.841 359.902L353.647 359.902C353.647 360.945 353.628 361.983 353.59 363.017C310.182 365.848 275.226 400.735 272.399 444.402C271.369 444.44 270.333 444.459 269.293 444.459C268.384 444.459 267.479 444.444 266.577 444.416C263.748 400.612 228.587 365.639 184.994 362.993C184.96 362.032 184.941 361.066 184.939 360.098L185.134 360.098C185.134 359.125 185.15 358.156 185.183 357.191C228.752 354.452 263.853 319.42 266.589 275.59C267.551 275.558 268.518 275.541 269.488 275.541ZM272.265 447.143C271.278 447.176 270.288 447.193 269.293 447.193C268.429 447.193 267.568 447.18 266.711 447.155C266.744 448.14 266.76 449.129 266.76 450.122C266.76 451.051 266.746 451.977 266.717 452.9C267.637 452.871 268.561 452.856 269.488 452.856C270.415 452.856 271.338 452.871 272.258 452.9C272.229 451.977 272.215 451.051 272.215 450.122C272.215 449.125 272.232 448.132 272.265 447.143ZM275.142 444.258C275.359 441.099 275.748 437.986 276.302 434.931C293.691 432.4 307.798 420.278 313.515 404.231L313.515 431.908C302.214 438.901 289.146 443.295 275.142 444.258ZM353.447 365.766C315.628 368.367 284.632 395.996 276.836 432.237C297.8 428.614 313.32 410.356 313.32 388.804L316.048 388.804L316.242 388.804L316.242 430.147C337.276 415.986 351.611 392.588 353.447 365.766ZM356.19 365.622C353.377 409.296 318.568 444.188 274.999 447.009C274.961 448.042 274.942 449.08 274.942 450.122C274.942 451.095 274.959 452.064 274.991 453.029C318.546 455.768 353.487 490.8 356.377 534.629C357.346 534.662 358.319 534.679 359.296 534.679L359.296 537.413C358.366 537.413 357.438 537.398 356.515 537.369C356.547 538.291 356.565 539.217 356.569 540.146L356.374 540.146C356.372 541.011 356.358 541.874 356.331 542.735C357.315 542.702 358.304 542.685 359.296 542.685L359.296 545.419C358.261 545.419 357.23 545.438 356.204 545.475C354.9 566.666 346.095 586.562 330.854 601.66C318.512 614.031 303.249 622.172 286.677 625.516C286.518 627.045 286.436 628.598 286.436 630.171C286.436 631.604 286.504 633.022 286.637 634.42C324.627 642.102 353.74 674.786 356.375 714.482C357.345 714.515 358.319 714.532 359.296 714.532L359.296 717.266C358.365 717.266 357.438 717.251 356.514 717.222C356.547 718.145 356.565 719.071 356.569 720L353.842 720C353.842 719.027 353.825 718.059 353.793 717.094C325.303 715.307 300.539 699.746 285.985 677.038L252.997 677.038C238.416 699.782 213.601 715.307 185.183 717.093C185.15 718.058 185.134 719.027 185.134 720L182.407 720C182.407 719.071 182.421 718.145 182.45 717.222C181.53 717.251 180.606 717.266 179.679 717.266L179.679 714.532C180.649 714.532 181.616 714.516 182.578 714.483C185.066 674.635 214.306 642.058 252.339 634.41C252.471 633.015 252.539 631.601 252.539 630.171C252.539 628.619 252.459 627.086 252.302 625.576C214.078 617.975 184.87 585.238 182.383 545.462C181.485 545.433 180.584 545.419 179.679 545.419L179.679 542.685C180.541 542.685 181.399 542.698 182.255 542.723C182.226 541.802 182.212 540.878 182.212 539.951L182.407 539.951C182.409 539.087 182.423 538.227 182.45 537.369C181.53 537.398 180.606 537.413 179.679 537.413L179.679 534.679C180.649 534.679 181.616 534.662 182.578 534.63C185.314 490.8 220.415 455.768 263.984 453.029C264.017 452.064 264.033 451.095 264.033 450.122C264.033 449.088 264.014 448.058 263.978 447.032C220.228 444.383 185.222 409.257 182.396 365.609C181.494 365.58 180.588 365.566 179.679 365.566L179.679 362.832C180.543 362.832 181.404 362.844 182.261 362.869C182.228 361.884 182.212 360.895 182.212 359.902L182.407 359.902C182.409 359.039 182.423 358.178 182.45 357.32C181.53 357.349 180.606 357.364 179.679 357.364L179.679 354.63C180.649 354.63 181.616 354.613 182.578 354.581C185.314 310.751 220.415 275.719 263.984 272.98C264.017 272.015 264.033 271.046 264.033 270.073C264.033 269.039 264.014 268.009 263.978 266.984C220.228 264.335 185.222 229.208 182.396 185.56C181.494 185.531 180.588 185.517 179.679 185.517L179.679 182.783C180.543 182.783 181.404 182.795 182.261 182.821C182.228 181.836 182.212 180.846 182.212 179.853L182.407 179.853C182.409 178.924 182.425 177.998 182.456 177.076C181.534 177.105 180.608 177.12 179.679 177.12L179.679 174.581C180.649 174.581 181.616 174.564 182.578 174.532C185.065 134.69 214.296 102.118 252.32 94.4629C252.465 93.0034 252.539 91.5227 252.539 90.0245C252.539 88.6009 252.411 87.0492 252.259 85.5769C214.098 77.8769 184.977 45.1113 182.568 5.34129C181.605 5.27251 180.642 5.27251 179.679 5.27251L179.679 2.73393L182.449 2.73393C182.421 1.82591 182.407 0.914535 182.407 -1.59411e-05L185.134 -1.61795e-05C185.134 46.4768 222.733 84.5566 269.293 84.5566C315.853 84.5566 353.647 46.672 353.647 -3.09114e-05L356.374 -3.11498e-05C356.374 42.1881 326.475 77.5988 286.6 85.5987C286.436 87.0739 286.436 88.5492 286.436 90.0245C286.436 91.5232 286.51 93.0044 286.655 94.4644C324.581 102.11 353.655 134.586 356.363 174.335C357.337 174.369 358.315 174.386 359.296 174.386L359.296 177.12C358.363 177.12 357.434 177.105 356.508 177.075C356.544 178.062 356.565 179.054 356.569 180.049L356.374 180.049C356.372 180.979 356.356 181.908 356.326 182.833C357.312 182.8 358.302 182.783 359.296 182.783L359.296 185.517C358.258 185.517 357.224 185.535 356.195 185.573C354.856 206.83 346.058 226.501 330.854 241.562C315.66 256.792 296.039 265.611 274.998 266.961C274.961 267.994 274.942 269.031 274.942 270.073C274.942 271.046 274.959 272.015 274.991 272.98C318.546 275.72 353.487 310.751 356.376 354.58C357.346 354.613 358.319 354.63 359.296 354.63L359.296 357.364C358.365 357.364 357.438 357.349 356.515 357.32C356.547 358.242 356.565 359.168 356.569 360.098L356.374 360.098C356.372 361.029 356.355 361.957 356.324 362.882C357.311 362.848 358.302 362.832 359.296 362.832L359.296 365.566C358.256 365.566 357.221 365.584 356.19 365.622ZM353.793 537.241C353.823 538.141 353.839 539.044 353.841 539.951L353.647 539.951C353.647 540.927 353.63 541.9 353.598 542.87C325.099 544.726 300.243 560.399 285.729 583.303L253.246 583.303C238.666 560.295 213.649 544.583 184.988 542.846C184.957 541.949 184.941 541.05 184.939 540.146L185.134 540.146C185.134 539.174 185.15 538.205 185.183 537.24C228.752 534.5 263.853 499.468 266.589 455.639C267.551 455.606 268.518 455.59 269.488 455.59C270.458 455.59 271.424 455.606 272.386 455.639C275.109 499.475 310.061 534.512 353.793 537.241ZM276.743 467.568C284.396 504.091 315.59 531.969 353.656 534.492C351.875 507.5 337.437 483.955 316.243 469.771L316.243 511.05L313.515 511.05C313.515 489.399 297.853 471.072 276.743 467.568ZM276.225 464.884C293.733 467.327 307.768 479.489 313.515 495.427L313.515 468.021C302.203 461.063 289.13 456.705 275.128 455.776C275.332 458.86 275.7 461.899 276.225 464.884ZM263.847 455.776C263.644 458.86 263.275 461.899 262.75 464.884C245.236 467.327 231.015 479.492 225.46 495.622L225.46 468.021C236.773 461.063 249.845 456.705 263.847 455.776ZM185.32 534.492C223.386 531.969 254.579 504.091 262.233 467.568C241.122 471.072 225.46 489.399 225.46 511.05L222.733 511.05L222.733 469.772C201.538 483.955 187.101 507.5 185.32 534.492ZM225.46 432.147C236.777 439.065 249.844 443.387 263.835 444.284C263.624 441.194 263.248 438.15 262.714 435.16C245.217 432.698 231.012 420.354 225.46 404.426L225.46 432.147ZM222.733 430.407C201.48 416.27 186.977 392.738 185.137 365.74C223.21 368.182 254.442 395.983 262.186 432.457C241.1 428.754 225.46 410.439 225.46 388.804L222.733 388.804L222.733 430.407ZM353.786 176.947C353.821 177.912 353.839 178.881 353.841 179.853L353.647 179.853C353.647 180.895 353.628 181.933 353.591 182.968C310.183 185.798 275.226 220.686 272.399 264.354C271.367 264.391 270.331 264.41 269.293 264.41C268.384 264.41 267.479 264.396 266.577 264.367C263.748 220.563 228.587 185.59 184.994 182.944C184.96 181.983 184.941 181.018 184.939 180.049L185.134 180.049C185.134 179.01 185.153 177.976 185.19 176.947C213.604 175.158 238.417 159.633 252.997 136.892L285.985 136.892C300.538 159.598 325.299 175.158 353.786 176.947ZM289.22 136.892C303.381 158.027 326.803 172.415 353.642 174.198C351.805 147.288 337.386 123.823 316.243 109.674L316.243 131.813C320.702 133.333 325.485 134.158 330.464 134.158L330.464 136.892L316.243 136.892L316.243 150.952L313.515 150.952C313.515 146.05 312.713 141.319 311.226 136.892L289.22 136.892ZM310.285 134.353L287.584 134.353C282.54 126.211 278.837 117.149 276.785 107.477C281.113 108.2 285.211 109.546 288.992 111.416C293.429 120.108 300.499 127.247 309.133 131.759C309.544 132.609 309.928 133.474 310.285 134.353ZM306.508 127.078C301.28 123.68 296.821 119.199 293.442 113.951C298.684 117.357 303.138 121.843 306.508 127.078ZM290.902 109.442C299.566 113.912 306.588 121.032 311.04 129.656C311.852 130.055 312.677 130.431 313.515 130.78L313.515 107.923C305.477 102.98 296.551 99.3481 287.034 97.3269C287.742 101.606 289.062 105.676 290.902 109.442ZM287.333 107.791C283.848 106.357 280.14 105.336 276.261 104.791C275.728 101.805 275.352 98.765 275.141 95.6795C278.266 95.8872 281.344 96.2656 284.367 96.8056C284.91 100.633 285.919 104.315 287.333 107.791ZM313.515 133.767C313.277 133.673 313.04 133.576 312.803 133.478C312.922 133.768 313.038 134.06 313.151 134.353L313.515 134.353L313.515 133.767ZM284.418 134.353L254.565 134.353C261.393 122.858 265.663 109.658 266.576 95.5418C267.543 95.5089 268.513 95.4923 269.488 95.4923C270.462 95.4923 271.433 95.5089 272.4 95.5418C273.313 109.637 277.582 122.843 284.418 134.353ZM272.265 92.8021C271.343 92.773 270.417 92.7583 269.488 92.7583C268.559 92.7583 267.633 92.773 266.711 92.8021C266.744 91.8152 266.76 90.8241 266.76 89.8291C266.637 88.9668 266.592 88.1047 266.575 87.2424C267.542 87.2744 268.513 87.2904 269.488 87.2904C270.436 87.2904 271.38 87.2752 272.321 87.245L272.312 87.388C272.264 88.218 272.215 89.0479 272.215 89.8291C272.215 90.824 272.232 91.815 272.265 92.8021ZM274.98 87.1191C274.942 88.0224 274.942 88.9258 274.942 89.8291C274.942 90.8676 274.961 91.9018 274.998 92.9313C278.062 93.1243 281.083 93.477 284.054 93.9814C283.954 92.7401 283.904 91.4856 283.904 90.2197C283.904 88.8053 283.904 87.3908 284.005 86.0781C281.046 86.5781 278.035 86.9278 274.98 87.1191ZM185.32 174.395C187.101 147.402 201.538 123.857 222.733 109.674L222.733 131.813C218.273 133.333 213.49 134.158 208.511 134.158L208.511 136.892L222.733 136.892L222.733 150.952L225.46 150.952C225.46 146.05 226.263 141.319 227.75 136.892L249.885 136.892C235.736 158.137 212.247 172.609 185.32 174.395ZM225.46 130.78L225.46 107.923C233.498 102.98 242.424 99.3481 251.942 97.3269C251.235 101.599 249.917 105.662 248.083 109.423C239.407 113.878 232.355 120.986 227.952 129.648C227.135 130.05 226.304 130.428 225.46 130.78ZM232.468 127.078C235.838 121.843 240.291 117.357 245.533 113.951C242.154 119.199 237.695 123.68 232.468 127.078ZM229.778 131.893C238.572 127.368 245.766 120.126 250.243 111.288C253.964 109.479 257.988 108.175 262.233 107.47C260.206 117.141 256.529 126.205 251.512 134.353L228.69 134.353C229.028 133.521 229.391 132.7 229.778 131.893ZM254.808 96.7702C254.272 100.572 253.276 104.231 251.879 107.687C255.311 106.302 258.953 105.316 262.75 104.786C263.275 101.801 263.644 98.7625 263.847 95.6787C260.787 95.8816 257.771 96.2483 254.808 96.7702ZM225.881 134.353L225.46 134.353L225.46 133.844C225.705 133.748 225.948 133.65 226.191 133.55C226.085 133.817 225.982 134.084 225.881 134.353ZM263.984 92.9308C260.986 93.1193 258.029 93.4607 255.119 93.9473C255.216 92.7172 255.266 91.474 255.266 90.2197C255.204 89.5348 255.162 88.8697 255.12 88.2182L255.12 88.2174C255.074 87.4902 255.029 86.7796 254.958 86.0771C257.884 86.5712 260.86 86.9187 263.878 87.1116L263.882 87.1805L263.888 87.277L263.893 87.3608C263.902 87.5046 263.912 87.6485 263.923 87.7923L263.935 87.9739C263.984 88.6574 264.033 89.3409 264.033 90.0244C264.033 90.9971 264.016 91.966 263.984 92.9308ZM353.656 354.443C350.873 312.273 317.198 278.516 275.128 275.727C277.911 317.898 311.586 351.654 353.656 354.443ZM353.449 185.717C311.546 188.598 278.018 222.205 275.142 264.209C295.371 262.817 314.328 254.222 328.905 239.609C343.493 224.987 352.07 206.131 353.449 185.717ZM185.137 185.691C188.009 227.837 221.741 261.536 263.835 264.236C260.963 222.09 227.231 188.391 185.137 185.691ZM263.847 275.727C261.065 317.898 227.389 351.654 185.32 354.443C188.102 312.273 221.778 278.517 263.847 275.727ZM107.417 82.7219C143.783 74.9986 171.524 43.7621 174.038 5.65428C147.111 7.4395 123.622 21.9117 109.473 43.157L150.847 43.157L150.847 45.891C128.977 45.891 110.879 61.7984 107.417 82.7219ZM135.262 45.891L107.726 45.891C100.785 57.2309 96.4371 70.3345 95.5111 84.3702C98.5813 84.1666 101.607 83.7981 104.579 83.2736C107.102 65.9326 119.188 51.6081 135.262 45.891ZM89.8704 87.2905C90.7975 87.2905 91.7211 87.2759 92.6412 87.2469C92.6123 88.1692 92.5978 89.0951 92.5978 90.0244C92.5978 90.9525 92.6121 91.8784 92.6406 92.8019C91.7206 92.7729 90.7971 92.7583 89.8704 92.7583C88.9414 92.7583 88.0156 92.773 87.0934 92.8021C87.1265 91.8152 87.1431 90.8241 87.1431 89.8291C87.1431 88.9655 87.1305 88.1047 87.1053 87.2471C88.0235 87.2759 88.9452 87.2905 89.8704 87.2905ZM95.3252 90.0244C95.3252 89.0518 95.3416 88.0831 95.3741 87.1184C98.3785 86.93 101.341 86.5884 104.255 86.1014C104.147 87.3952 104.092 88.7036 104.092 90.0244C104.092 91.3423 104.146 92.6515 104.253 93.9496C101.339 93.4618 98.3767 93.1196 95.3742 92.9308C95.3416 91.9644 95.3252 90.9955 95.3252 90.0244ZM104.572 96.7742C101.602 96.2502 98.5792 95.8821 95.5113 95.6787C96.4175 109.406 100.616 122.554 107.74 134.158L135.067 134.158C128.638 131.815 122.794 128.104 117.729 123.027C110.562 115.843 105.999 106.7 104.572 96.7742ZM104.513 134.158C97.6267 122.442 93.6144 109.292 92.7672 95.5413C91.8055 95.5087 90.8399 95.4923 89.8704 95.4923C88.896 95.4923 87.9255 95.5089 86.959 95.5418C86.0515 109.579 81.824 122.708 75.0631 134.158L104.513 134.158ZM150.847 136.892L109.492 136.892C112.553 141.473 116.086 145.79 120.066 149.78C134.704 164.453 153.594 173.059 174.038 174.397C171.525 136.281 143.773 105.039 107.396 97.3227C108.853 106.38 113.044 114.62 119.677 121.269C128.054 129.666 139.158 134.158 150.847 134.158L150.847 136.892ZM104.563 45.891C97.8376 57.3478 93.6452 70.4769 92.7694 84.5075C91.8071 84.5402 90.8406 84.5566 89.8704 84.5566C88.9038 84.5566 87.941 84.5403 86.9822 84.5079C86.1319 70.4888 81.9452 57.356 75.212 45.891L104.563 45.891ZM71.8946 134.158C78.8729 122.826 83.2577 109.722 84.2166 95.6796C81.0821 95.8879 77.9942 96.2681 74.9622 96.8108C72.428 114.136 60.3468 128.445 44.2844 134.158L71.8946 134.158ZM70.1378 136.892L28.8942 136.892L28.8942 134.158C50.7635 134.158 68.862 118.25 72.3244 97.3269C36.0206 105.037 8.31208 136.18 5.7157 174.198C32.5553 172.415 55.977 158.027 70.1378 136.892ZM84.3599 92.9313C81.2911 93.1244 78.2643 93.4778 75.2879 93.9833C75.3981 92.6778 75.4543 91.3574 75.4543 90.0244C75.4543 88.6924 75.399 87.373 75.2905 86.0685C78.2693 86.5734 81.2995 86.9262 84.3732 87.1188C84.4015 88.0187 84.4157 88.9223 84.4157 89.8291C84.4157 90.8676 84.397 91.9018 84.3599 92.9313ZM84.2425 84.371C81.1015 84.1633 78.0072 83.7829 74.969 83.2393C72.4678 65.9137 60.5199 51.6044 44.2843 45.891L72.1337 45.891C79.0375 57.2389 83.3493 70.3419 84.2425 84.371ZM70.398 43.157L28.8942 43.157L28.8942 45.891C50.7635 45.891 68.862 61.7984 72.3244 82.722C35.8958 74.9855 8.12169 43.6549 5.68981 5.45813C32.7052 7.24505 56.2604 21.8018 70.398 43.157ZM353.462 545.618C326.533 547.465 303.062 562.003 288.96 583.303L330.464 583.303L330.464 586.037C308.68 586.037 290.638 601.82 287.075 622.623C302.762 619.245 317.237 611.404 328.905 599.707C343.54 585.038 352.125 566.107 353.462 545.618ZM287.344 585.842L314.879 585.842C298.817 591.555 286.735 605.864 284.201 623.189C281.213 623.724 278.186 624.098 275.129 624.308C276.057 610.277 280.405 597.178 287.344 585.842ZM284.18 585.842C277.456 597.297 273.264 610.424 272.387 624.452C271.358 624.489 270.327 624.508 269.293 624.508C268.388 624.508 267.487 624.493 266.589 624.465C265.714 610.432 261.521 597.301 254.795 585.842L284.18 585.842ZM272.259 627.192C271.273 627.225 270.284 627.242 269.293 627.242C268.431 627.242 267.573 627.229 266.717 627.204C266.746 628.124 266.76 629.048 266.76 629.976C266.76 630.905 266.746 631.831 266.717 632.753C267.637 632.724 268.561 632.709 269.488 632.709C270.415 632.709 271.338 632.724 272.258 632.753C272.23 631.831 272.215 630.905 272.215 629.976C272.215 629.044 272.23 628.117 272.259 627.192ZM274.992 627.06C277.984 626.868 280.948 626.525 283.874 626.034C283.765 627.334 283.709 628.648 283.709 629.976C283.709 631.299 283.764 632.611 283.873 633.908C280.959 633.417 277.996 633.073 274.991 632.883C274.959 631.918 274.942 630.949 274.942 629.976C274.942 629 274.959 628.028 274.992 627.06ZM275.128 635.63C278.198 635.833 281.224 636.202 284.196 636.726C286.719 654.067 298.806 668.392 314.879 674.109L287.344 674.109C280.403 662.769 276.054 649.665 275.128 635.63ZM272.387 635.493C273.264 649.502 277.455 662.637 284.187 674.109L254.795 674.109C261.52 662.652 265.713 649.523 266.589 635.493C267.551 635.46 268.518 635.443 269.488 635.443C270.458 635.443 271.425 635.46 272.387 635.493ZM289.22 677.038L330.464 677.038L330.464 674.304C308.524 674.304 290.38 658.294 287.001 637.271C323.383 644.982 351.141 676.226 353.656 714.346C326.811 712.566 303.383 698.177 289.22 677.038ZM223.902 674.109L251.632 674.109C258.573 662.769 262.921 649.666 263.847 635.63C260.708 635.838 257.616 636.218 254.579 636.762C252.045 654.087 239.964 668.396 223.902 674.109ZM208.511 677.038L249.755 677.038C235.592 698.177 212.165 712.566 185.32 714.346C187.835 676.226 215.592 644.982 251.975 637.271C248.596 658.294 230.451 674.304 208.511 674.304L208.511 677.038ZM254.905 633.935C257.884 633.429 260.913 633.075 263.984 632.882C264.017 631.917 264.033 630.948 264.033 629.976C264.033 629.007 264.017 628.042 263.984 627.082C260.913 626.896 257.885 626.55 254.908 626.053C255.016 627.346 255.072 628.655 255.072 629.976C255.072 631.309 255.015 632.629 254.905 633.935ZM254.585 623.225C257.62 623.76 260.711 624.133 263.848 624.334C262.924 610.294 258.575 597.186 251.632 585.842L223.902 585.842C239.975 591.559 252.062 605.884 254.585 623.225ZM208.511 583.303L250.015 583.303C235.846 561.9 212.216 547.326 185.124 545.593C187.637 583.763 215.459 615.042 251.909 622.707C248.35 601.863 230.15 586.037 208.511 586.037L208.511 583.303Z" fill="url(#paint0_linear)" fill-opacity="0.5"></path> <defs> <linearGradient id="paint0_linear" x1="172.062" y1="253" x2="327.562" y2="784" gradientUnits="userSpaceOnUse"> <stop stop-color="#CCEAED"></stop> <stop offset="1" stop-color="#CCEAED" stop-opacity="0"></stop> </linearGradient> </defs> </svg> 